<svg xmlns="http://www.w3.org/2000/svg" version="1.1" xmlns:xlink="http://www.w3.org/1999/xlink" xmlns:svgjs="http://svgjs.com/svgjs" width="1000" height="1000"><rect width="1000" height="1000" rx="50" ry="50" fill="#3ac7bd"></rect><g transform="matrix(5.217391304347826,0,0,5.217391304347826,280.8695820595907,200.00000402201778)"><svg xmlns="http://www.w3.org/2000/svg" version="1.1" xmlns:xlink="http://www.w3.org/1999/xlink" xmlns:svgjs="http://svgjs.com/svgjs" width="84" height="115"><svg width="84" height="115" viewBox="0 0 84 115" fill="none" xmlns="http://www.w3.org/2000/svg">
<path d="M52.6511 50.3116H77.0608C79.9725 50.3116 82.5995 52.1758 83.4314 54.9609C84.6355 57.7685 83.8693 60.9354 81.6801 62.9119L25.6362 113.224C23.1623 115.425 19.5436 115.604 16.899 113.628C14.2522 111.651 13.289 108.058 14.5784 104.981L31.4157 64.6863H6.8089C4.08771 64.6863 1.47444 62.8221 0.447919 60.037C-0.578604 57.2294 0.196247 54.0625 2.39326 52.086L58.4306 1.77835C60.9044 -0.431316 64.5166 -0.599546 67.1656 1.37316C69.8145 3.34655 70.7778 6.9335 69.4861 10.0196L52.6511 50.3116Z" fill="white"></path>
</svg></svg></g></svg>