<svg id="visual" viewBox="0 0 2000 500" width="2000" height="500" xmlns="http://www.w3.org/2000/svg" xmlns:xlink="http://www.w3.org/1999/xlink" version="1.1"><g stroke-width="1" stroke-linejoin="bevel"><path d="M918.1 308.3L878.1 192.7L733.3 330.3Z" fill="#2cadc9" stroke="#2cadc9"></path><path d="M878.1 192.7L716.3 200.7L733.3 330.3Z" fill="#57c0da" stroke="#57c0da"></path><path d="M733.3 330.3L896.1 500L918.1 308.3Z" fill="#22869c" stroke="#22869c"></path><path d="M531.5 357.3L709.3 500L733.3 330.3Z" fill="#2cadc9" stroke="#2cadc9"></path><path d="M733.3 330.3L709.3 500L896.1 500Z" fill="#74c9df" stroke="#74c9df"></path><path d="M1116.9 339.3L1086.9 174.7L918.1 308.3Z" fill="#22869c" stroke="#22869c"></path><path d="M918.1 308.3L1086.9 174.7L878.1 192.7Z" fill="#2cadc9" stroke="#2cadc9"></path><path d="M878.1 192.7L737.3 0L716.3 200.7Z" fill="#45bbd7" stroke="#45bbd7"></path><path d="M1086.9 174.7L903.1 0L878.1 192.7Z" fill="#81cde1" stroke="#81cde1"></path><path d="M903.1 0L737.3 0L878.1 192.7Z" fill="#22869c" stroke="#22869c"></path><path d="M520.5 199.7L531.5 357.3L716.3 200.7Z" fill="#2799b2" stroke="#2799b2"></path><path d="M716.3 200.7L531.5 357.3L733.3 330.3Z" fill="#2eb7d5" stroke="#2eb7d5"></path><path d="M1085.9 500L1116.9 339.3L918.1 308.3Z" fill="#57c0da" stroke="#57c0da"></path><path d="M546.5 0L520.5 199.7L716.3 200.7Z" fill="#22869c" stroke="#22869c"></path><path d="M896.1 500L1085.9 500L918.1 308.3Z" fill="#2799b2" stroke="#2799b2"></path><path d="M365.6 339.3L507.5 500L531.5 357.3Z" fill="#2799b2" stroke="#2799b2"></path><path d="M531.5 357.3L507.5 500L709.3 500Z" fill="#2cadc9" stroke="#2cadc9"></path><path d="M1086.9 174.7L1091.9 0L903.1 0Z" fill="#57c0da" stroke="#57c0da"></path><path d="M1275.7 143.7L1091.9 0L1086.9 174.7Z" fill="#2490a7" stroke="#2490a7"></path><path d="M737.3 0L546.5 0L716.3 200.7Z" fill="#45bbd7" stroke="#45bbd7"></path><path d="M1296.7 500L1264.7 306.3L1116.9 339.3Z" fill="#22869c" stroke="#22869c"></path><path d="M1116.9 339.3L1264.7 306.3L1086.9 174.7Z" fill="#22869c" stroke="#22869c"></path><path d="M520.5 199.7L365.6 339.3L531.5 357.3Z" fill="#2cadc9" stroke="#2cadc9"></path><path d="M328.6 182.7L365.6 339.3L520.5 199.7Z" fill="#2cadc9" stroke="#2cadc9"></path><path d="M1264.7 306.3L1275.7 143.7L1086.9 174.7Z" fill="#45bbd7" stroke="#45bbd7"></path><path d="M365.6 339.3L373.6 500L507.5 500Z" fill="#45bbd7" stroke="#45bbd7"></path><path d="M359.6 0L328.6 182.7L520.5 199.7Z" fill="#2799b2" stroke="#2799b2"></path><path d="M365.6 339.3L208.8 500L373.6 500Z" fill="#22869c" stroke="#22869c"></path><path d="M1085.9 500L1296.7 500L1116.9 339.3Z" fill="#2490a7" stroke="#2490a7"></path><path d="M1264.7 306.3L1467.5 196.7L1275.7 143.7Z" fill="#2cadc9" stroke="#2cadc9"></path><path d="M1275.7 143.7L1271.7 0L1091.9 0Z" fill="#81cde1" stroke="#81cde1"></path><path d="M1450.5 0L1271.7 0L1275.7 143.7Z" fill="#57c0da" stroke="#57c0da"></path><path d="M546.5 0L359.6 0L520.5 199.7Z" fill="#2cadc9" stroke="#2cadc9"></path><path d="M148.8 150.7L210.8 311.3L328.6 182.7Z" fill="#74c9df" stroke="#74c9df"></path><path d="M328.6 182.7L210.8 311.3L365.6 339.3Z" fill="#57c0da" stroke="#57c0da"></path><path d="M210.8 311.3L208.8 500L365.6 339.3Z" fill="#57c0da" stroke="#57c0da"></path><path d="M1486.5 304.3L1467.5 196.7L1264.7 306.3Z" fill="#81cde1" stroke="#81cde1"></path><path d="M1296.7 500L1486.5 304.3L1264.7 306.3Z" fill="#57c0da" stroke="#57c0da"></path><path d="M163.8 0L148.8 150.7L328.6 182.7Z" fill="#45bbd7" stroke="#45bbd7"></path><path d="M210.8 311.3L0 500L208.8 500Z" fill="#81cde1" stroke="#81cde1"></path><path d="M1467.5 196.7L1450.5 0L1275.7 143.7Z" fill="#74c9df" stroke="#74c9df"></path><path d="M1637.4 0L1450.5 0L1467.5 196.7Z" fill="#57c0da" stroke="#57c0da"></path><path d="M1296.7 500L1493.5 500L1486.5 304.3Z" fill="#2799b2" stroke="#2799b2"></path><path d="M359.6 0L163.8 0L328.6 182.7Z" fill="#2799b2" stroke="#2799b2"></path><path d="M0 142.7L0 293.3L148.8 150.7Z" fill="#2490a7" stroke="#2490a7"></path><path d="M148.8 150.7L0 293.3L210.8 311.3Z" fill="#57c0da" stroke="#57c0da"></path><path d="M1669.4 327.3L1646.4 197.7L1486.5 304.3Z" fill="#22869c" stroke="#22869c"></path><path d="M1486.5 304.3L1646.4 197.7L1467.5 196.7Z" fill="#22869c" stroke="#22869c"></path><path d="M0 0L0 142.7L148.8 150.7Z" fill="#2cadc9" stroke="#2cadc9"></path><path d="M1493.5 500L1669.4 327.3L1486.5 304.3Z" fill="#22869c" stroke="#22869c"></path><path d="M0 293.3L0 500L210.8 311.3Z" fill="#74c9df" stroke="#74c9df"></path><path d="M1493.5 500L1642.4 500L1669.4 327.3Z" fill="#57c0da" stroke="#57c0da"></path><path d="M1804.2 175.7L1637.4 0L1646.4 197.7Z" fill="#2799b2" stroke="#2799b2"></path><path d="M1646.4 197.7L1637.4 0L1467.5 196.7Z" fill="#22869c" stroke="#22869c"></path><path d="M163.8 0L0 0L148.8 150.7Z" fill="#2490a7" stroke="#2490a7"></path><path d="M1834.2 368.3L1804.2 175.7L1669.4 327.3Z" fill="#2490a7" stroke="#2490a7"></path><path d="M1669.4 327.3L1804.2 175.7L1646.4 197.7Z" fill="#57c0da" stroke="#57c0da"></path><path d="M1642.4 500L1834.2 368.3L1669.4 327.3Z" fill="#45bbd7" stroke="#45bbd7"></path><path d="M2000 0L1812.2 0L1804.2 175.7Z" fill="#2490a7" stroke="#2490a7"></path><path d="M1804.2 175.7L1812.2 0L1637.4 0Z" fill="#66c4dc" stroke="#66c4dc"></path><path d="M1642.4 500L1836.2 500L1834.2 368.3Z" fill="#45bbd7" stroke="#45bbd7"></path><path d="M2000 362.3L2000 198.7L1834.2 368.3Z" fill="#29a3be" stroke="#29a3be"></path><path d="M1834.2 368.3L2000 198.7L1804.2 175.7Z" fill="#22869c" stroke="#22869c"></path><path d="M2000 500L2000 362.3L1834.2 368.3Z" fill="#57c0da" stroke="#57c0da"></path><path d="M1836.2 500L2000 500L1834.2 368.3Z" fill="#81cde1" stroke="#81cde1"></path><path d="M2000 198.7L2000 0L1804.2 175.7Z" fill="#2490a7" stroke="#2490a7"></path></g></svg>