<svg id="visual" viewBox="0 0 2000 500" width="2000" height="500" xmlns="http://www.w3.org/2000/svg" xmlns:xlink="http://www.w3.org/1999/xlink" version="1.1"><g stroke-width="1" stroke-linejoin="bevel"><path d="M924.1 302.3L879.1 500L1072.9 357.3Z" fill="#4e45cd" stroke="#4e45cd"></path><path d="M879.1 500L1117.9 500L1072.9 357.3Z" fill="#3b34a0" stroke="#3b34a0"></path><path d="M721.3 353.3L747.3 500L879.1 500Z" fill="#4940c1" stroke="#4940c1"></path><path d="M924.1 302.3L721.3 353.3L879.1 500Z" fill="#6b5fdf" stroke="#6b5fdf"></path><path d="M1102.9 130.7L899.1 131.7L924.1 302.3Z" fill="#4940c1" stroke="#4940c1"></path><path d="M924.1 302.3L697.3 183.7L721.3 353.3Z" fill="#4940c1" stroke="#4940c1"></path><path d="M1264.7 296.3L1102.9 130.7L1072.9 357.3Z" fill="#6054db" stroke="#6054db"></path><path d="M1072.9 357.3L1102.9 130.7L924.1 302.3Z" fill="#8c80e8" stroke="#8c80e8"></path><path d="M1117.9 500L1264.7 296.3L1072.9 357.3Z" fill="#4e45cd" stroke="#4e45cd"></path><path d="M1117.9 500L1295.7 500L1264.7 296.3Z" fill="#6054db" stroke="#6054db"></path><path d="M899.1 131.7L697.3 183.7L924.1 302.3Z" fill="#4038ab" stroke="#4038ab"></path><path d="M1421.5 302.3L1277.7 198.7L1264.7 296.3Z" fill="#4038ab" stroke="#4038ab"></path><path d="M1264.7 296.3L1277.7 198.7L1102.9 130.7Z" fill="#776ae2" stroke="#776ae2"></path><path d="M1076.9 0L918.1 0L899.1 131.7Z" fill="#4e45cd" stroke="#4e45cd"></path><path d="M899.1 131.7L696.3 0L697.3 183.7Z" fill="#6054db" stroke="#6054db"></path><path d="M1076.9 0L899.1 131.7L1102.9 130.7Z" fill="#4038ab" stroke="#4038ab"></path><path d="M1301.7 0L1076.9 0L1102.9 130.7Z" fill="#5349d8" stroke="#5349d8"></path><path d="M697.3 183.7L537.5 351.3L721.3 353.3Z" fill="#443cb6" stroke="#443cb6"></path><path d="M721.3 353.3L539.5 500L747.3 500Z" fill="#4038ab" stroke="#4038ab"></path><path d="M537.5 351.3L539.5 500L721.3 353.3Z" fill="#8175e5" stroke="#8175e5"></path><path d="M1295.7 500L1421.5 302.3L1264.7 296.3Z" fill="#6b5fdf" stroke="#6b5fdf"></path><path d="M1418.5 500L1421.5 302.3L1295.7 500Z" fill="#6054db" stroke="#6054db"></path><path d="M1277.7 198.7L1301.7 0L1102.9 130.7Z" fill="#3b34a0" stroke="#3b34a0"></path><path d="M918.1 0L696.3 0L899.1 131.7Z" fill="#8c80e8" stroke="#8c80e8"></path><path d="M697.3 183.7L528.5 173.7L537.5 351.3Z" fill="#443cb6" stroke="#443cb6"></path><path d="M583.5 0L528.5 173.7L697.3 183.7Z" fill="#6b5fdf" stroke="#6b5fdf"></path><path d="M537.5 351.3L363.6 500L539.5 500Z" fill="#776ae2" stroke="#776ae2"></path><path d="M1456.5 132.7L1301.7 0L1277.7 198.7Z" fill="#6054db" stroke="#6054db"></path><path d="M696.3 0L583.5 0L697.3 183.7Z" fill="#443cb6" stroke="#443cb6"></path><path d="M1421.5 302.3L1456.5 132.7L1277.7 198.7Z" fill="#6b5fdf" stroke="#6b5fdf"></path><path d="M1598.4 348.3L1456.5 132.7L1421.5 302.3Z" fill="#6b5fdf" stroke="#6b5fdf"></path><path d="M351.6 194.7L379.6 294.3L528.5 173.7Z" fill="#4e45cd" stroke="#4e45cd"></path><path d="M528.5 173.7L379.6 294.3L537.5 351.3Z" fill="#3b34a0" stroke="#3b34a0"></path><path d="M379.6 294.3L363.6 500L537.5 351.3Z" fill="#4940c1" stroke="#4940c1"></path><path d="M1456.5 132.7L1422.5 0L1301.7 0Z" fill="#5349d8" stroke="#5349d8"></path><path d="M1418.5 500L1598.4 348.3L1421.5 302.3Z" fill="#8c80e8" stroke="#8c80e8"></path><path d="M1456.5 132.7L1617.4 135.7L1422.5 0Z" fill="#443cb6" stroke="#443cb6"></path><path d="M335.6 0L351.6 194.7L528.5 173.7Z" fill="#8175e5" stroke="#8175e5"></path><path d="M152.8 342.3L195.8 500L363.6 500Z" fill="#4e45cd" stroke="#4e45cd"></path><path d="M1418.5 500L1644.4 500L1598.4 348.3Z" fill="#8c80e8" stroke="#8c80e8"></path><path d="M1800.2 296.3L1617.4 135.7L1598.4 348.3Z" fill="#8175e5" stroke="#8175e5"></path><path d="M1598.4 348.3L1617.4 135.7L1456.5 132.7Z" fill="#8175e5" stroke="#8175e5"></path><path d="M583.5 0L335.6 0L528.5 173.7Z" fill="#443cb6" stroke="#443cb6"></path><path d="M152.8 342.3L363.6 500L379.6 294.3Z" fill="#3b34a0" stroke="#3b34a0"></path><path d="M152.8 342.3L379.6 294.3L351.6 194.7Z" fill="#5349d8" stroke="#5349d8"></path><path d="M1799.2 177.7L1668.4 0L1617.4 135.7Z" fill="#4940c1" stroke="#4940c1"></path><path d="M1617.4 135.7L1668.4 0L1422.5 0Z" fill="#5349d8" stroke="#5349d8"></path><path d="M167.8 182.7L152.8 342.3L351.6 194.7Z" fill="#8c80e8" stroke="#8c80e8"></path><path d="M210.8 0L167.8 182.7L351.6 194.7Z" fill="#6054db" stroke="#6054db"></path><path d="M1644.4 500L1800.2 296.3L1598.4 348.3Z" fill="#6054db" stroke="#6054db"></path><path d="M335.6 0L210.8 0L351.6 194.7Z" fill="#8175e5" stroke="#8175e5"></path><path d="M1644.4 500L1827.2 500L1800.2 296.3Z" fill="#776ae2" stroke="#776ae2"></path><path d="M2000 296.3L1799.2 177.7L1800.2 296.3Z" fill="#5349d8" stroke="#5349d8"></path><path d="M1800.2 296.3L1799.2 177.7L1617.4 135.7Z" fill="#443cb6" stroke="#443cb6"></path><path d="M1799.2 177.7L1782.2 0L1668.4 0Z" fill="#443cb6" stroke="#443cb6"></path><path d="M0 199.7L152.8 342.3L167.8 182.7Z" fill="#4940c1" stroke="#4940c1"></path><path d="M0 199.7L0 343.3L152.8 342.3Z" fill="#443cb6" stroke="#443cb6"></path><path d="M152.8 342.3L0 500L195.8 500Z" fill="#443cb6" stroke="#443cb6"></path><path d="M0 343.3L0 500L152.8 342.3Z" fill="#8c80e8" stroke="#8c80e8"></path><path d="M0 0L0 199.7L167.8 182.7Z" fill="#776ae2" stroke="#776ae2"></path><path d="M1827.2 500L2000 296.3L1800.2 296.3Z" fill="#4e45cd" stroke="#4e45cd"></path><path d="M1799.2 177.7L2000 148.7L1782.2 0Z" fill="#3b34a0" stroke="#3b34a0"></path><path d="M2000 500L2000 296.3L1827.2 500Z" fill="#4940c1" stroke="#4940c1"></path><path d="M210.8 0L0 0L167.8 182.7Z" fill="#776ae2" stroke="#776ae2"></path><path d="M2000 296.3L2000 148.7L1799.2 177.7Z" fill="#3b34a0" stroke="#3b34a0"></path><path d="M2000 148.7L2000 0L1782.2 0Z" fill="#776ae2" stroke="#776ae2"></path></g></svg>