<svg id="visual" viewBox="0 0 2000 500" width="2000" height="500" xmlns="http://www.w3.org/2000/svg" xmlns:xlink="http://www.w3.org/1999/xlink" version="1.1"><g stroke-width="1" stroke-linejoin="bevel"><path d="M900.1 177.7L946.1 0L752.3 141.7Z" fill="#a44483" stroke="#a44483"></path><path d="M946.1 0L698.3 0L752.3 141.7Z" fill="#a44483" stroke="#a44483"></path><path d="M900.1 177.7L1082.9 149.7L946.1 0Z" fill="#983075" stroke="#983075"></path><path d="M1082.9 149.7L1099.9 0L946.1 0Z" fill="#8a2368" stroke="#8a2368"></path><path d="M695.3 354.3L899.1 363.3L900.1 177.7Z" fill="#6b1c50" stroke="#6b1c50"></path><path d="M900.1 177.7L1092.9 363.3L1082.9 149.7Z" fill="#731e56" stroke="#731e56"></path><path d="M698.3 0L534.5 159.7L752.3 141.7Z" fill="#6b1c50" stroke="#6b1c50"></path><path d="M752.3 141.7L695.3 354.3L900.1 177.7Z" fill="#9e3b7c" stroke="#9e3b7c"></path><path d="M534.5 159.7L695.3 354.3L752.3 141.7Z" fill="#8a2368" stroke="#8a2368"></path><path d="M532.5 0L534.5 159.7L698.3 0Z" fill="#b05791" stroke="#b05791"></path><path d="M899.1 363.3L1092.9 363.3L900.1 177.7Z" fill="#9e3b7c" stroke="#9e3b7c"></path><path d="M1082.9 149.7L1280.7 0L1099.9 0Z" fill="#8a2368" stroke="#8a2368"></path><path d="M333.6 323.3L531.5 362.3L534.5 159.7Z" fill="#aa4e8a" stroke="#aa4e8a"></path><path d="M534.5 159.7L531.5 362.3L695.3 354.3Z" fill="#aa4e8a" stroke="#aa4e8a"></path><path d="M701.3 500L907.1 500L899.1 363.3Z" fill="#7a205c" stroke="#7a205c"></path><path d="M701.3 500L899.1 363.3L695.3 354.3Z" fill="#aa4e8a" stroke="#aa4e8a"></path><path d="M899.1 363.3L907.1 500L1092.9 363.3Z" fill="#9e3b7c" stroke="#9e3b7c"></path><path d="M1308.7 169.7L1280.7 0L1082.9 149.7Z" fill="#92256e" stroke="#92256e"></path><path d="M556.5 500L701.3 500L695.3 354.3Z" fill="#a44483" stroke="#a44483"></path><path d="M532.5 0L394.6 0L534.5 159.7Z" fill="#a44483" stroke="#a44483"></path><path d="M1112.9 500L1244.7 318.3L1092.9 363.3Z" fill="#9e3b7c" stroke="#9e3b7c"></path><path d="M1092.9 363.3L1244.7 318.3L1082.9 149.7Z" fill="#6b1c50" stroke="#6b1c50"></path><path d="M1244.7 318.3L1308.7 169.7L1082.9 149.7Z" fill="#731e56" stroke="#731e56"></path><path d="M907.1 500L1112.9 500L1092.9 363.3Z" fill="#731e56" stroke="#731e56"></path><path d="M394.6 0L337.6 141.7L534.5 159.7Z" fill="#7a205c" stroke="#7a205c"></path><path d="M338.6 500L556.5 500L531.5 362.3Z" fill="#a44483" stroke="#a44483"></path><path d="M531.5 362.3L556.5 500L695.3 354.3Z" fill="#92256e" stroke="#92256e"></path><path d="M337.6 141.7L333.6 323.3L534.5 159.7Z" fill="#6b1c50" stroke="#6b1c50"></path><path d="M1438.5 165.7L1428.5 0L1308.7 169.7Z" fill="#7a205c" stroke="#7a205c"></path><path d="M1308.7 169.7L1428.5 0L1280.7 0Z" fill="#b05791" stroke="#b05791"></path><path d="M1483.5 315.3L1438.5 165.7L1308.7 169.7Z" fill="#9e3b7c" stroke="#9e3b7c"></path><path d="M1483.5 315.3L1308.7 169.7L1244.7 318.3Z" fill="#6b1c50" stroke="#6b1c50"></path><path d="M1112.9 500L1310.7 500L1244.7 318.3Z" fill="#731e56" stroke="#731e56"></path><path d="M166.8 0L214.8 146.7L337.6 141.7Z" fill="#731e56" stroke="#731e56"></path><path d="M337.6 141.7L214.8 146.7L333.6 323.3Z" fill="#6b1c50" stroke="#6b1c50"></path><path d="M215.8 500L338.6 500L333.6 323.3Z" fill="#7a205c" stroke="#7a205c"></path><path d="M333.6 323.3L338.6 500L531.5 362.3Z" fill="#822162" stroke="#822162"></path><path d="M1310.7 500L1483.5 315.3L1244.7 318.3Z" fill="#6b1c50" stroke="#6b1c50"></path><path d="M1438.5 165.7L1605.4 0L1428.5 0Z" fill="#822162" stroke="#822162"></path><path d="M394.6 0L166.8 0L337.6 141.7Z" fill="#731e56" stroke="#731e56"></path><path d="M0 136.7L171.8 320.3L214.8 146.7Z" fill="#9e3b7c" stroke="#9e3b7c"></path><path d="M214.8 146.7L171.8 320.3L333.6 323.3Z" fill="#b05791" stroke="#b05791"></path><path d="M1310.7 500L1450.5 500L1483.5 315.3Z" fill="#b05791" stroke="#b05791"></path><path d="M1615.4 186.7L1438.5 165.7L1483.5 315.3Z" fill="#6b1c50" stroke="#6b1c50"></path><path d="M1615.4 186.7L1605.4 0L1438.5 165.7Z" fill="#983075" stroke="#983075"></path><path d="M171.8 320.3L215.8 500L333.6 323.3Z" fill="#9e3b7c" stroke="#9e3b7c"></path><path d="M1632.4 314.3L1615.4 186.7L1483.5 315.3Z" fill="#983075" stroke="#983075"></path><path d="M1623.4 500L1632.4 314.3L1483.5 315.3Z" fill="#6b1c50" stroke="#6b1c50"></path><path d="M1615.4 186.7L1780.2 0L1605.4 0Z" fill="#b05791" stroke="#b05791"></path><path d="M166.8 0L0 136.7L214.8 146.7Z" fill="#983075" stroke="#983075"></path><path d="M171.8 320.3L0 500L215.8 500Z" fill="#7a205c" stroke="#7a205c"></path><path d="M166.8 0L0 0L0 136.7Z" fill="#822162" stroke="#822162"></path><path d="M1450.5 500L1623.4 500L1483.5 315.3Z" fill="#aa4e8a" stroke="#aa4e8a"></path><path d="M0 136.7L0 343.3L171.8 320.3Z" fill="#8a2368" stroke="#8a2368"></path><path d="M1831.2 166.7L1615.4 186.7L1632.4 314.3Z" fill="#822162" stroke="#822162"></path><path d="M1831.2 166.7L1780.2 0L1615.4 186.7Z" fill="#a44483" stroke="#a44483"></path><path d="M0 343.3L0 500L171.8 320.3Z" fill="#aa4e8a" stroke="#aa4e8a"></path><path d="M1811.2 344.3L1831.2 166.7L1632.4 314.3Z" fill="#7a205c" stroke="#7a205c"></path><path d="M1623.4 500L1811.2 344.3L1632.4 314.3Z" fill="#b05791" stroke="#b05791"></path><path d="M1623.4 500L1852.2 500L1811.2 344.3Z" fill="#6b1c50" stroke="#6b1c50"></path><path d="M2000 159.7L2000 0L1831.2 166.7Z" fill="#8a2368" stroke="#8a2368"></path><path d="M2000 159.7L1831.2 166.7L2000 303.3Z" fill="#7a205c" stroke="#7a205c"></path><path d="M1831.2 166.7L2000 0L1780.2 0Z" fill="#983075" stroke="#983075"></path><path d="M2000 303.3L1831.2 166.7L1811.2 344.3Z" fill="#731e56" stroke="#731e56"></path><path d="M1852.2 500L2000 303.3L1811.2 344.3Z" fill="#6b1c50" stroke="#6b1c50"></path><path d="M1852.2 500L2000 500L2000 303.3Z" fill="#983075" stroke="#983075"></path></g></svg>