<svg id="visual" viewBox="0 0 2000 500" width="2000" height="500" xmlns="http://www.w3.org/2000/svg" xmlns:xlink="http://www.w3.org/1999/xlink" version="1.1"><g stroke-width="1" stroke-linejoin="bevel"><path d="M1067.9 146.7L1055.9 0L899.1 130.7Z" fill="#51de99" stroke="#51de99"></path><path d="M1055.9 0L922.1 0L899.1 130.7Z" fill="#2cd888" stroke="#2cd888"></path><path d="M922.1 0L741.3 0L899.1 130.7Z" fill="#7ae6b1" stroke="#7ae6b1"></path><path d="M1123.9 365.3L1272.7 183.7L1067.9 146.7Z" fill="#26c079" stroke="#26c079"></path><path d="M1067.9 146.7L1291.7 0L1055.9 0Z" fill="#2cd888" stroke="#2cd888"></path><path d="M755.3 301.3L883.1 370.3L899.1 130.7Z" fill="#1f9e64" stroke="#1f9e64"></path><path d="M899.1 130.7L883.1 370.3L1067.9 146.7Z" fill="#51de99" stroke="#51de99"></path><path d="M1272.7 183.7L1291.7 0L1067.9 146.7Z" fill="#1f9e64" stroke="#1f9e64"></path><path d="M741.3 0L693.3 186.7L899.1 130.7Z" fill="#6de3a9" stroke="#6de3a9"></path><path d="M883.1 370.3L1123.9 365.3L1067.9 146.7Z" fill="#21a96b" stroke="#21a96b"></path><path d="M693.3 186.7L755.3 301.3L899.1 130.7Z" fill="#1f9e64" stroke="#1f9e64"></path><path d="M1276.7 500L1260.7 368.3L1123.9 365.3Z" fill="#7ae6b1" stroke="#7ae6b1"></path><path d="M1123.9 365.3L1260.7 368.3L1272.7 183.7Z" fill="#2cd888" stroke="#2cd888"></path><path d="M1272.7 183.7L1457.5 0L1291.7 0Z" fill="#26c079" stroke="#26c079"></path><path d="M741.3 0L574.5 132.7L693.3 186.7Z" fill="#29cc81" stroke="#29cc81"></path><path d="M693.3 186.7L577.5 327.3L755.3 301.3Z" fill="#6de3a9" stroke="#6de3a9"></path><path d="M706.3 500L919.1 500L883.1 370.3Z" fill="#29cc81" stroke="#29cc81"></path><path d="M883.1 370.3L1078.9 500L1123.9 365.3Z" fill="#2cd888" stroke="#2cd888"></path><path d="M706.3 500L883.1 370.3L755.3 301.3Z" fill="#24b572" stroke="#24b572"></path><path d="M919.1 500L1078.9 500L883.1 370.3Z" fill="#24b572" stroke="#24b572"></path><path d="M741.3 0L538.5 0L574.5 132.7Z" fill="#29cc81" stroke="#29cc81"></path><path d="M1486.5 199.7L1457.5 0L1272.7 183.7Z" fill="#21a96b" stroke="#21a96b"></path><path d="M340.6 157.7L577.5 327.3L574.5 132.7Z" fill="#1f9e64" stroke="#1f9e64"></path><path d="M574.5 132.7L577.5 327.3L693.3 186.7Z" fill="#1f9e64" stroke="#1f9e64"></path><path d="M577.5 327.3L706.3 500L755.3 301.3Z" fill="#26c079" stroke="#26c079"></path><path d="M1078.9 500L1276.7 500L1123.9 365.3Z" fill="#24b572" stroke="#24b572"></path><path d="M1452.5 344.3L1486.5 199.7L1272.7 183.7Z" fill="#2cd888" stroke="#2cd888"></path><path d="M1452.5 344.3L1272.7 183.7L1260.7 368.3Z" fill="#60e1a1" stroke="#60e1a1"></path><path d="M1434.5 500L1452.5 344.3L1260.7 368.3Z" fill="#41db91" stroke="#41db91"></path><path d="M538.5 0L384.6 0L574.5 132.7Z" fill="#24b572" stroke="#24b572"></path><path d="M1276.7 500L1434.5 500L1260.7 368.3Z" fill="#29cc81" stroke="#29cc81"></path><path d="M1657.4 185.7L1654.4 0L1486.5 199.7Z" fill="#6de3a9" stroke="#6de3a9"></path><path d="M336.6 319.3L506.5 500L577.5 327.3Z" fill="#2cd888" stroke="#2cd888"></path><path d="M577.5 327.3L506.5 500L706.3 500Z" fill="#24b572" stroke="#24b572"></path><path d="M384.6 0L340.6 157.7L574.5 132.7Z" fill="#29cc81" stroke="#29cc81"></path><path d="M1657.4 185.7L1486.5 199.7L1618.4 329.3Z" fill="#1f9e64" stroke="#1f9e64"></path><path d="M1486.5 199.7L1654.4 0L1457.5 0Z" fill="#24b572" stroke="#24b572"></path><path d="M1618.4 329.3L1486.5 199.7L1452.5 344.3Z" fill="#26c079" stroke="#26c079"></path><path d="M1650.4 500L1618.4 329.3L1452.5 344.3Z" fill="#24b572" stroke="#24b572"></path><path d="M340.6 157.7L336.6 319.3L577.5 327.3Z" fill="#60e1a1" stroke="#60e1a1"></path><path d="M336.6 319.3L394.6 500L506.5 500Z" fill="#26c079" stroke="#26c079"></path><path d="M1434.5 500L1650.4 500L1452.5 344.3Z" fill="#6de3a9" stroke="#6de3a9"></path><path d="M1618.4 329.3L1789.2 194.7L1657.4 185.7Z" fill="#1f9e64" stroke="#1f9e64"></path><path d="M340.6 157.7L185.8 156.7L336.6 319.3Z" fill="#29cc81" stroke="#29cc81"></path><path d="M336.6 319.3L193.8 500L394.6 500Z" fill="#41db91" stroke="#41db91"></path><path d="M167.8 0L185.8 156.7L340.6 157.7Z" fill="#29cc81" stroke="#29cc81"></path><path d="M1833.2 349.3L1789.2 194.7L1618.4 329.3Z" fill="#6de3a9" stroke="#6de3a9"></path><path d="M1657.4 185.7L1803.2 0L1654.4 0Z" fill="#24b572" stroke="#24b572"></path><path d="M1789.2 194.7L1803.2 0L1657.4 185.7Z" fill="#26c079" stroke="#26c079"></path><path d="M384.6 0L167.8 0L340.6 157.7Z" fill="#7ae6b1" stroke="#7ae6b1"></path><path d="M0 165.7L169.8 335.3L185.8 156.7Z" fill="#29cc81" stroke="#29cc81"></path><path d="M185.8 156.7L169.8 335.3L336.6 319.3Z" fill="#6de3a9" stroke="#6de3a9"></path><path d="M1650.4 500L1833.2 349.3L1618.4 329.3Z" fill="#7ae6b1" stroke="#7ae6b1"></path><path d="M2000 168.7L2000 0L1803.2 0Z" fill="#24b572" stroke="#24b572"></path><path d="M169.8 335.3L193.8 500L336.6 319.3Z" fill="#26c079" stroke="#26c079"></path><path d="M1650.4 500L1818.2 500L1833.2 349.3Z" fill="#1f9e64" stroke="#1f9e64"></path><path d="M167.8 0L0 165.7L185.8 156.7Z" fill="#21a96b" stroke="#21a96b"></path><path d="M169.8 335.3L0 500L193.8 500Z" fill="#26c079" stroke="#26c079"></path><path d="M0 0L0 165.7L167.8 0Z" fill="#2cd888" stroke="#2cd888"></path><path d="M2000 168.7L1789.2 194.7L1833.2 349.3Z" fill="#29cc81" stroke="#29cc81"></path><path d="M2000 168.7L1803.2 0L1789.2 194.7Z" fill="#7ae6b1" stroke="#7ae6b1"></path><path d="M2000 362.3L2000 168.7L1833.2 349.3Z" fill="#7ae6b1" stroke="#7ae6b1"></path><path d="M0 165.7L0 332.3L169.8 335.3Z" fill="#6de3a9" stroke="#6de3a9"></path><path d="M2000 500L2000 362.3L1833.2 349.3Z" fill="#29cc81" stroke="#29cc81"></path><path d="M0 332.3L0 500L169.8 335.3Z" fill="#51de99" stroke="#51de99"></path><path d="M1818.2 500L2000 500L1833.2 349.3Z" fill="#26c079" stroke="#26c079"></path></g></svg>