<svg id="visual" viewBox="0 0 900 600" width="900" height="600" xmlns="http://www.w3.org/2000/svg" xmlns:xlink="http://www.w3.org/1999/xlink" version="1.1"><rect width="900" height="600" fill="#D4ADCF"></rect><g><g transform="translate(87 572)"><path d="M164.2 -97.4C193.1 -44.6 183.4 27.8 149.6 79.4C115.8 131 57.9 161.6 2.1 160.4C-53.7 159.2 -107.5 126.2 -146.4 71.7C-185.3 17.1 -209.3 -58.8 -182.5 -110.4C-155.6 -162 -77.8 -189.2 -5.1 -186.2C67.6 -183.3 135.2 -150.2 164.2 -97.4Z" fill="#3F3D56"></path></g><g transform="translate(705 141)"><path d="M168.2 -93.6C207.7 -28.6 222.5 54.2 190.4 114.1C158.2 174 79.1 210.9 5.8 207.6C-67.6 204.3 -135.1 160.6 -170.9 98.7C-206.7 36.7 -210.7 -43.6 -176.9 -105.3C-143.1 -167.1 -71.6 -210.2 -3.6 -208.1C64.3 -206 128.6 -158.7 168.2 -93.6Z" fill="#3F3D56"></path></g></g></svg>