<svg id="visual" viewBox="0 0 900 600" width="900" height="600" xmlns="http://www.w3.org/2000/svg" xmlns:xlink="http://www.w3.org/1999/xlink" version="1.1"><path d="M0 475L21.5 482C43 489 86 503 128.8 486.8C171.7 470.7 214.3 424.3 257.2 410.2C300 396 343 414 385.8 431.5C428.7 449 471.3 466 514.2 478.7C557 491.3 600 499.7 642.8 490.8C685.7 482 728.3 456 771.2 451C814 446 857 462 878.5 470L900 478L900 601L878.5 601C857 601 814 601 771.2 601C728.3 601 685.7 601 642.8 601C600 601 557 601 514.2 601C471.3 601 428.7 601 385.8 601C343 601 300 601 257.2 601C214.3 601 171.7 601 128.8 601C86 601 43 601 21.5 601L0 601Z" fill="#319795" stroke-linecap="round" stroke-linejoin="miter"></path></svg>