<svg width="644" height="502" viewBox="0 0 644 502" fill="none" xmlns="http://www.w3.org/2000/svg">
<path fill-rule="evenodd" clip-rule="evenodd" d="M362.048 9.20026C447.597 -4.00153 550.408 -11.211 609.005 46.8753C666.93 104.296 638.226 193.923 626.147 270.997C616.317 333.715 598.606 396.151 547.501 439.302C498.03 481.073 429.312 488.154 362.048 493.99C284.211 500.744 202.018 514.825 137.384 474.888C62.1252 428.387 -10.0324 352.999 1.151 270.997C12.0177 191.318 117.767 162.148 186.872 112.019C243.341 71.0556 290.78 20.1983 362.048 9.20026Z" fill="#319795"/>
<path d="M508.362 116.096L465.82 116.517C463.82 106.515 457.102 80.2709 463.153 73.1126C463.428 70.4185 464.716 67.9361 466.748 66.1824C468.78 64.4287 471.399 63.5388 474.06 63.6979V63.6979C480.654 53.2108 491.637 54.7854 499.06 61.335C506.53 63.9541 509.347 68.6071 508.362 74.9214C513.894 79.8419 514.915 85.8283 512.432 92.6428L508.362 116.096Z" fill="#2F2E41"/>
<path d="M504.267 142.723L473.574 138.405L467.435 129.29C475.891 123.591 478.883 115.631 474.99 104.821L496.239 104.342C495.244 113.967 498.377 121.42 507.1 125.931L504.267 142.723Z" fill="#FFB9B9"/>
<path d="M466.317 424.006L465.144 440.308C465.091 441.046 465.193 441.786 465.445 442.481C465.697 443.175 466.092 443.806 466.604 444.333C467.115 444.859 467.732 445.268 468.412 445.533C469.092 445.797 469.82 445.911 470.547 445.866L478.788 445.359C479.169 445.336 479.541 445.227 479.877 445.041C480.213 444.854 480.504 444.595 480.731 444.282C480.957 443.968 481.112 443.608 481.186 443.227C481.26 442.845 481.25 442.452 481.157 442.075L476.583 423.484L466.317 424.006Z" fill="#E6E6E6"/>
<path d="M492.997 423.484L488.423 442.075C488.33 442.452 488.32 442.845 488.394 443.227C488.467 443.608 488.623 443.969 488.849 444.282C489.075 444.595 489.367 444.854 489.702 445.041C490.038 445.227 490.41 445.336 490.792 445.359L499.033 445.866C499.76 445.911 500.488 445.797 501.168 445.533C501.848 445.268 502.464 444.859 502.976 444.333C503.488 443.806 503.883 443.175 504.135 442.481C504.386 441.786 504.489 441.046 504.436 440.308L503.262 424.006L492.997 423.484Z" fill="#E6E6E6"/>
<path d="M503.795 426.269L492.673 425.135L481.601 304.886L477.417 424.748L466.491 424.35L448.075 258.348H518.432L503.795 426.269Z" fill="#D4ADCF"/>
<path d="M486.795 112.497C498.531 112.497 508.044 102.831 508.044 90.9077C508.044 78.9839 498.531 69.3179 486.795 69.3179C475.06 69.3179 465.546 78.9839 465.546 90.9077C465.546 102.831 475.06 112.497 486.795 112.497Z" fill="#FFB9B9"/>
<path d="M528.821 262.187L442.881 263.146C455.635 213.815 463.264 167.99 449.964 136.486L471.213 125.931C481.458 136.789 492.869 135.67 505.211 124.972L525.515 130.249C522.038 171.561 523.596 215.806 528.821 262.187Z" fill="#D4ADCF"/>
<path d="M419.271 211.331L472.629 232.921L484.559 236.486C485.093 236.645 485.652 236.693 486.205 236.627C486.757 236.561 487.291 236.383 487.773 236.102C488.256 235.821 488.678 235.444 489.014 234.994C489.349 234.543 489.592 234.028 489.727 233.48C489.963 232.519 489.857 231.503 489.427 230.614C488.997 229.725 488.271 229.019 487.377 228.622L474.99 224.764L437.687 202.695L445.478 181.825L429.187 172.949L419.271 211.331Z" fill="#FFB9B9"/>
<path d="M419.743 171.989C429.895 176.013 437.97 182.881 444.298 192.14L464.13 162.874L449.964 136.486L419.743 171.989Z" fill="#D4ADCF"/>
<path d="M510.744 87.4088C502.12 85.151 493.64 84.841 485.398 87.7048C480.147 90.2886 473.842 90.0505 466.83 87.9216V66.3815L504.687 67.4072L510.744 87.4088Z" fill="#2F2E41"/>
<path d="M472.452 186.176C470.784 186.178 469.184 186.852 468.004 188.051C466.824 189.25 466.161 190.875 466.159 192.57L468.643 245.405C468.645 247.1 469.309 248.725 470.488 249.924C471.668 251.123 473.268 251.797 474.936 251.799H503.338C505.006 251.797 506.606 251.123 507.786 249.924C508.965 248.725 509.629 247.1 509.631 245.405L512.115 192.57C512.113 190.875 511.45 189.25 510.27 188.051C509.09 186.852 507.49 186.178 505.822 186.176H472.452Z" fill="#3F3D56"/>
<path d="M553.035 207.339L506.526 226.156L503.017 227.575C502.905 227.62 502.793 227.657 502.675 227.695L490.919 231.21C489.416 231.658 487.336 229.601 486.119 228.181C485.516 227.497 485.175 226.616 485.156 225.698C485.138 224.78 485.444 223.886 486.019 223.177C486.182 222.987 486.361 222.812 486.553 222.654C487.007 222.295 487.54 222.057 488.106 221.96L499.85 219.612C500.271 219.528 500.676 219.375 501.048 219.158L506.526 215.915L534.963 199.092C535.754 198.625 536.356 197.888 536.662 197.012C536.968 196.136 536.958 195.178 536.633 194.309L531.206 179.765C530.873 178.875 530.87 177.892 531.198 177.001C531.526 176.109 532.162 175.369 532.988 174.919L541.98 170.022C542.494 169.742 543.064 169.584 543.647 169.56C544.229 169.536 544.81 169.646 545.344 169.883C545.879 170.12 546.354 170.477 546.733 170.928C547.112 171.378 547.385 171.91 547.532 172.483L555.339 202.695C555.579 203.622 555.477 204.605 555.053 205.461C554.628 206.316 553.91 206.984 553.035 207.339V207.339Z" fill="#FFB9B9"/>
<path d="M555.736 166.712C545.584 170.736 537.51 177.604 531.182 186.862L511.349 157.596L525.515 130.249L555.736 166.712Z" fill="#D4ADCF"/>
<path d="M500.937 110.124C491.641 114.053 481.894 113.893 471.748 110.124C474.7 105.004 470.287 100.994 468.022 95.8257L505.905 94.6819C503.008 99.1718 498.733 104.477 500.937 110.124Z" fill="white"/>
<path d="M505.504 95.5361L505.064 95.09L505.685 94.459L509.395 90.0597L509.867 90.4698L506.141 94.8868L505.504 95.5361Z" fill="white"/>
<path d="M465.426 92.8618L465.028 93.3468L468.755 96.5018L469.152 96.0168L465.426 92.8618Z" fill="white"/>
<path d="M506.574 99.2457L500.052 109.656L500.576 109.995L507.098 99.5846L506.574 99.2457Z" fill="white"/>
<path d="M466.11 99.245L465.586 99.5839L472.107 109.995L472.631 109.656L466.11 99.245Z" fill="white"/>
<path d="M507.768 215.022V226.453L503.851 228.038C503.726 228.087 503.602 228.13 503.47 228.172L490.347 232.095C488.67 232.595 486.347 230.299 484.989 228.714C484.316 227.951 483.935 226.967 483.915 225.942C483.894 224.918 484.236 223.92 484.878 223.129C485.059 222.916 485.259 222.721 485.474 222.544C485.98 222.144 486.575 221.878 487.207 221.769L500.316 219.149C500.786 219.056 501.238 218.884 501.654 218.642L507.768 215.022Z" fill="white"/>
<path d="M513.444 174.247H511.2C511.2 141.997 504.664 119.522 498.295 119.522L497.734 117.242C503.446 117.242 507.087 126.596 509.136 134.443C511.914 145.081 513.444 159.217 513.444 174.247Z" fill="#3F3D56"/>
<path d="M461.827 166.267H459.583C459.583 136.73 466.163 118.382 475.853 118.382L475.292 120.662C468.59 120.662 461.827 134.764 461.827 166.267Z" fill="#3F3D56"/>
<path d="M512.322 180.518C515.42 180.518 517.932 177.966 517.932 174.818C517.932 171.669 515.42 169.117 512.322 169.117C509.223 169.117 506.711 171.669 506.711 174.818C506.711 177.966 509.223 180.518 512.322 180.518Z" fill="#3F3D56"/>
<path d="M452.85 179.948H450.606C450.606 171.775 455.136 165.127 460.705 165.127V167.407C456.374 167.407 452.85 173.033 452.85 179.948Z" fill="#3F3D56"/>
<path d="M470.804 179.948H468.56C468.56 173.033 465.036 167.407 460.705 167.407V165.127C466.274 165.127 470.804 171.775 470.804 179.948Z" fill="#3F3D56"/>
<path d="M469.682 182.798C470.921 182.798 471.926 181.777 471.926 180.518C471.926 179.259 470.921 178.238 469.682 178.238C468.442 178.238 467.438 179.259 467.438 180.518C467.438 181.777 468.442 182.798 469.682 182.798Z" fill="#3F3D56"/>
<path d="M451.728 182.798C452.967 182.798 453.972 181.777 453.972 180.518C453.972 179.259 452.967 178.238 451.728 178.238C450.489 178.238 449.484 179.259 449.484 180.518C449.484 181.777 450.489 182.798 451.728 182.798Z" fill="#3F3D56"/>
<path d="M181.274 103.889L141.86 110.67C140.886 110.839 139.886 110.635 139.052 110.097C138.217 109.56 137.609 108.727 137.345 107.76C134.497 97.3173 128.544 83.6946 134.324 76.856C134.619 73.979 135.994 71.3283 138.163 69.4556C140.333 67.583 143.13 66.6326 145.972 66.8025C153.013 55.604 164.741 57.2854 172.667 64.2793C180.645 67.0761 183.652 72.0448 182.601 78.7874C186.047 81.8524 187.854 85.3048 188.235 89.094C188.415 91.2027 188.151 93.3262 187.46 95.323C186.769 97.3197 185.667 99.1437 184.227 100.673L181.274 103.889Z" fill="#2F2E41"/>
<path d="M175.146 135.416L144.591 133.59C147.586 126.607 148.782 119.883 147.587 113.502H170.353C170.302 118.401 172.701 126.875 175.146 135.416Z" fill="#9F616A"/>
<path d="M138.367 422.283L137.113 439.691C137.057 440.479 137.166 441.27 137.435 442.011C137.704 442.752 138.126 443.427 138.672 443.989C139.219 444.551 139.877 444.988 140.603 445.27C141.329 445.553 142.107 445.674 142.883 445.626L151.683 445.085C152.091 445.06 152.488 444.944 152.847 444.745C153.205 444.546 153.516 444.269 153.758 443.935C153.999 443.6 154.165 443.215 154.244 442.808C154.323 442.401 154.312 441.981 154.213 441.578L149.328 421.726L138.367 422.283Z" fill="#E6E6E6"/>
<path d="M166.856 421.726L161.972 441.578C161.873 441.981 161.862 442.401 161.941 442.808C162.019 443.215 162.185 443.6 162.427 443.935C162.668 444.269 162.98 444.546 163.338 444.745C163.697 444.944 164.094 445.06 164.502 445.085L173.302 445.626C174.078 445.674 174.855 445.553 175.582 445.27C176.308 444.988 176.966 444.551 177.512 443.989C178.059 443.427 178.481 442.752 178.749 442.011C179.018 441.27 179.128 440.479 179.071 439.691L177.818 422.283L166.856 421.726Z" fill="#E6E6E6"/>
<path d="M178.386 424.7L166.511 423.489L154.688 295.082L150.219 423.075L138.552 422.65L118.887 245.387H194.017L178.386 424.7Z" fill="#D4ADCF"/>
<path d="M159.571 120.892C172.102 120.892 182.261 110.57 182.261 97.8373C182.261 85.1047 172.102 74.7828 159.571 74.7828C147.039 74.7828 136.88 85.1047 136.88 97.8373C136.88 110.57 147.039 120.892 159.571 120.892Z" fill="#9F616A"/>
<path d="M185.144 86.8241C175.935 85.1946 166.88 84.9708 158.079 87.0378C152.472 88.9027 145.739 88.7308 138.251 87.1943V71.6473L178.676 72.3877L185.144 86.8241Z" fill="#2F2E41"/>
<path d="M174.671 116.336C164.745 120.531 154.337 120.361 143.503 116.336C146.655 110.868 141.943 106.587 139.524 101.068L179.977 99.8461C176.883 104.641 172.319 110.305 174.671 116.336Z" fill="white"/>
<path d="M136.739 97.919L136.341 98.4041L140.32 101.773L140.717 101.288L136.739 97.919Z" fill="white"/>
<path d="M180.71 104.731L173.745 115.847L174.269 116.186L181.234 105.07L180.71 104.731Z" fill="white"/>
<path d="M137.464 104.73L136.94 105.069L143.903 116.187L144.427 115.848L137.464 104.73Z" fill="white"/>
<path d="M116.433 202.985L99.0585 192.028L113.876 147.935C115.528 143.385 118.694 139.565 122.825 137.135L127.816 134.199L128.25 178.681L116.433 202.985Z" fill="#D4ADCF"/>
<path d="M191.533 224.4L188.962 202.03C188.825 190.222 190.802 178.807 195.516 168.288L197.913 135.416L171.552 124.459C171.471 125.005 171.402 125.551 171.325 126.096L158.97 132.373L146.921 129.59L146.988 125.677L123.023 136.634C130.948 174.07 126.626 212.945 112.997 258.863L144.569 267.634L144.831 252.232L172.968 250.19C173.258 255.187 173.491 260.095 173.626 264.895C189.503 270.834 190.048 270.736 204.514 262.232C198.753 249.926 194.192 237.12 191.533 224.4Z" fill="#D4ADCF"/>
<path d="M232.062 197.507L215.886 192.028L190.012 161.423L197.912 135.417L233.86 186.55L232.062 197.507Z" fill="#D4ADCF"/>
<path d="M181.367 221.201C181.631 222.381 182.346 223.406 183.353 224.052C184.361 224.698 185.579 224.911 186.742 224.645L200.473 221.486L198.488 212.58L184.757 215.739C183.594 216.007 182.584 216.733 181.949 217.757C181.313 218.781 181.103 220.02 181.367 221.201V221.201Z" fill="#E6E6E6"/>
<path d="M193.719 210.899L201.507 225.508C214.608 221.796 225.961 210.093 236.855 196.289L233.86 186.55L215.287 191.42L193.719 210.899Z" fill="#D4ADCF"/>
<path d="M92.1685 165.072L107.12 167.785L141.296 217.158L123.14 212.818L92.1685 165.072Z" fill="#E6E6E6"/>
<path d="M89.5165 164.468C89.2887 164.471 89.066 164.537 88.8716 164.658C88.6773 164.779 88.5185 164.95 88.4118 165.155C88.3052 165.36 88.2546 165.59 88.2654 165.821C88.2761 166.052 88.3479 166.276 88.4731 166.47L120.418 215.716C120.597 215.992 120.872 216.187 121.188 216.262L136.051 219.815C136.302 219.875 136.564 219.857 136.804 219.761C137.044 219.666 137.249 219.499 137.394 219.282C137.538 219.066 137.614 218.809 137.611 218.548C137.609 218.286 137.528 218.032 137.38 217.818L102.306 167.147C102.211 167.009 102.09 166.891 101.95 166.8C101.81 166.71 101.654 166.648 101.491 166.619L89.7561 164.49C89.677 164.475 89.5969 164.468 89.5165 164.468Z" fill="#3F3D56"/>
<path d="M109.444 199.679L110.332 208.765L124.342 207.352C125.528 207.233 126.619 206.639 127.374 205.703C128.129 204.766 128.488 203.563 128.37 202.358C128.252 201.153 127.668 200.045 126.746 199.278C125.825 198.51 124.641 198.146 123.455 198.266L109.444 199.679Z" fill="#E6E6E6"/>
<path d="M97.2615 198.626C97.2818 201.724 98.5065 204.689 100.669 206.874C102.831 209.058 105.755 210.286 108.805 210.29H111.108L112.786 196.089L98.8991 191.01L97.2615 198.626Z" fill="#D4ADCF"/>
<path d="M178.87 101.417L178.431 100.971L179.094 100.297L183.057 95.598L183.528 96.0082L179.549 100.725L178.87 101.417Z" fill="white"/>
<path d="M258.114 444.252H388.53V283.528C388.53 275.017 380.28 268.094 370.139 268.094H276.505C266.364 268.094 258.114 275.017 258.114 283.528V444.252Z" fill="#E6E6E6"/>
<path d="M268.05 437.606H378.594V301.373C378.594 294.159 371.6 288.291 363.005 288.291H283.639C275.043 288.291 268.05 294.159 268.05 301.373V437.606Z" fill="white"/>
<path d="M257.129 255.585C253.905 255.585 251.283 257.786 251.283 260.491V274.653C251.283 277.359 253.905 279.56 257.129 279.56H389.516C392.739 279.56 395.361 277.359 395.361 274.653V260.491C395.361 257.786 392.739 255.585 389.516 255.585H257.129Z" fill="#3F3D56"/>
<path d="M284.309 420.137C282.796 420.142 281.346 420.755 280.276 421.842C279.206 422.929 278.602 424.403 278.598 425.94V425.94C278.602 427.478 279.206 428.951 280.276 430.039C281.346 431.126 282.796 431.739 284.309 431.743H295V420.137H284.309Z" fill="#3F3D56"/>
<path d="M304.812 420.137H294.414V431.743H304.812C306.325 431.739 307.775 431.126 308.846 430.039C309.916 428.951 310.519 427.478 310.523 425.94V425.94C310.519 424.403 309.916 422.929 308.846 421.842C307.775 420.755 306.325 420.142 304.812 420.137V420.137Z" fill="#D4ADCF"/>
<path opacity="0.2" d="M308.539 421.559C309.439 422.608 309.936 423.953 309.937 425.345V425.345C309.933 426.883 309.33 428.356 308.26 429.444C307.19 430.531 305.739 431.144 304.226 431.148H294.414V431.743H304.812C306.325 431.739 307.775 431.126 308.846 430.039C309.916 428.952 310.519 427.478 310.523 425.94C310.522 425.108 310.344 424.286 310.001 423.53C309.659 422.773 309.16 422.101 308.539 421.559V421.559Z" fill="black"/>
<path d="M332.551 332.728C331.51 331.613 330.076 330.961 328.564 330.915C327.051 330.87 325.582 331.435 324.478 332.486V332.486C323.38 333.544 322.738 335.001 322.693 336.538C322.649 338.075 323.205 339.567 324.239 340.689L331.572 348.593L339.884 340.632L332.551 332.728Z" fill="#3F3D56"/>
<path d="M346.615 347.887L339.483 340.199L331.171 348.16L338.303 355.848C339.344 356.963 340.778 357.615 342.29 357.661C343.803 357.706 345.272 357.141 346.376 356.09V356.09C347.475 355.032 348.116 353.575 348.161 352.038C348.205 350.501 347.65 349.009 346.615 347.887V347.887Z" fill="#D4ADCF"/>
<path opacity="0.2" d="M348.153 351.617C348.019 353.003 347.397 354.293 346.401 355.249V355.249C345.296 356.3 343.828 356.865 342.315 356.819C340.802 356.774 339.368 356.122 338.327 355.006L331.597 347.752L331.171 348.16L338.303 355.848C339.344 356.964 340.778 357.615 342.29 357.661C343.803 357.706 345.272 357.141 346.376 356.09C346.971 355.518 347.438 354.822 347.745 354.05C348.052 353.279 348.191 352.449 348.153 351.617V351.617Z" fill="black"/>
<path d="M302.121 351.027C301.08 349.911 299.646 349.26 298.133 349.214C296.621 349.169 295.152 349.734 294.047 350.785V350.785C292.949 351.843 292.308 353.3 292.263 354.837C292.218 356.374 292.774 357.866 293.809 358.988L301.142 366.892L309.454 358.931L302.121 351.027Z" fill="#3F3D56"/>
<path d="M316.184 366.185L309.052 358.498L300.74 366.459L307.872 374.146C308.914 375.262 310.347 375.914 311.86 375.959C313.373 376.005 314.842 375.44 315.946 374.389V374.389C317.044 373.331 317.686 371.874 317.73 370.337C317.775 368.8 317.219 367.307 316.184 366.185V366.185Z" fill="#D4ADCF"/>
<path opacity="0.2" d="M317.723 369.916C317.589 371.301 316.967 372.591 315.97 373.547V373.547C314.866 374.599 313.397 375.163 311.884 375.118C310.372 375.073 308.938 374.421 307.897 373.305L301.166 366.051L300.74 366.459L307.872 374.146C308.914 375.262 310.347 375.914 311.86 375.959C313.373 376.005 314.842 375.44 315.946 374.389V374.389C316.541 373.817 317.008 373.121 317.315 372.349C317.621 371.577 317.76 370.747 317.723 369.916Z" fill="black"/>
<path d="M332.551 368.064C331.51 366.948 330.076 366.296 328.564 366.251C327.051 366.206 325.582 366.77 324.478 367.822V367.822C323.38 368.88 322.738 370.337 322.693 371.874C322.649 373.411 323.205 374.903 324.239 376.025L331.572 383.929L339.884 375.968L332.551 368.064Z" fill="#3F3D56"/>
<path d="M346.615 383.222L339.483 375.535L331.171 383.496L338.303 391.183C339.344 392.299 340.778 392.951 342.29 392.996C343.803 393.042 345.272 392.477 346.376 391.425V391.425C347.475 390.367 348.116 388.911 348.161 387.374C348.205 385.837 347.65 384.344 346.615 383.222V383.222Z" fill="#D4ADCF"/>
<path opacity="0.2" d="M348.153 386.953C348.019 388.338 347.397 389.628 346.401 390.584C345.296 391.636 343.828 392.2 342.315 392.155C340.802 392.11 339.368 391.458 338.327 390.342L331.597 383.088L331.171 383.496L338.303 391.183C339.344 392.299 340.778 392.951 342.29 392.996C343.803 393.042 345.272 392.477 346.376 391.426V391.426C346.971 390.854 347.438 390.158 347.745 389.386C348.052 388.614 348.191 387.784 348.153 386.953V386.953Z" fill="black"/>
<path d="M351.116 404.325C352.201 403.254 352.825 401.789 352.851 400.252C352.878 398.715 352.304 397.229 351.256 396.12V396.12C350.201 395.017 348.76 394.383 347.247 394.356C345.734 394.33 344.272 394.912 343.18 395.977L335.49 403.524L343.426 411.872L351.116 404.325Z" fill="#3F3D56"/>
<path d="M336.369 418.797L343.847 411.458L335.912 403.11L328.433 410.449C327.347 411.521 326.723 412.985 326.697 414.523C326.671 416.06 327.244 417.546 328.293 418.655V418.655C329.347 419.758 330.789 420.392 332.302 420.419C333.815 420.445 335.277 419.863 336.369 418.797V418.797Z" fill="#D4ADCF"/>
<path opacity="0.2" d="M332.716 420.406C331.351 420.287 330.074 419.67 329.121 418.67V418.67C328.073 417.56 327.499 416.075 327.525 414.537C327.552 413 328.176 411.536 329.261 410.464L336.319 403.538L335.912 403.11L328.433 410.449C327.347 411.521 326.723 412.985 326.697 414.523C326.671 416.06 327.244 417.546 328.293 418.655V418.655C328.863 419.253 329.553 419.719 330.316 420.021C331.08 420.323 331.898 420.454 332.716 420.406Z" fill="black"/>
<path d="M310.128 386.027C311.213 384.955 311.837 383.491 311.863 381.953C311.89 380.416 311.316 378.93 310.268 377.821C309.213 376.718 307.772 376.084 306.259 376.058C304.746 376.031 303.284 376.614 302.192 377.679L294.502 385.225L302.438 393.573L310.128 386.027Z" fill="#3F3D56"/>
<path d="M295.381 400.499L302.859 393.159L294.924 384.811L287.445 392.151C286.359 393.222 285.735 394.686 285.709 396.224C285.683 397.761 286.256 399.247 287.305 400.356V400.356C288.359 401.459 289.801 402.093 291.314 402.12C292.827 402.146 294.289 401.564 295.381 400.499V400.499Z" fill="#D4ADCF"/>
<path opacity="0.2" d="M291.728 402.107C290.363 401.988 289.086 401.371 288.133 400.371C287.085 399.262 286.511 397.776 286.537 396.239C286.564 394.701 287.188 393.237 288.273 392.165L295.331 385.239L294.924 384.811L287.445 392.151C286.359 393.222 285.735 394.686 285.709 396.224C285.683 397.761 286.256 399.247 287.305 400.356V400.356C287.875 400.954 288.565 401.42 289.328 401.722C290.092 402.024 290.91 402.155 291.728 402.107V402.107Z" fill="black"/>
<path d="M368.504 363.942C369.59 362.87 370.214 361.406 370.24 359.868C370.266 358.331 369.693 356.845 368.645 355.736V355.736C367.59 354.633 366.149 353.999 364.636 353.973C363.122 353.946 361.66 354.529 360.569 355.594L352.879 363.14L360.815 371.488L368.504 363.942Z" fill="#3F3D56"/>
<path d="M353.757 378.414L361.236 371.074L353.301 362.726L345.822 370.066C344.736 371.137 344.112 372.602 344.086 374.139C344.06 375.677 344.633 377.162 345.682 378.271V378.271C346.736 379.374 348.177 380.008 349.691 380.035C351.204 380.062 352.666 379.479 353.757 378.414Z" fill="#D4ADCF"/>
<path opacity="0.2" d="M350.105 380.022C348.74 379.903 347.463 379.286 346.51 378.286V378.286C345.462 377.177 344.888 375.691 344.914 374.154C344.941 372.616 345.565 371.152 346.65 370.08L353.708 363.154L353.301 362.726L345.822 370.066C344.736 371.137 344.112 372.602 344.086 374.139C344.06 375.677 344.633 377.162 345.682 378.271V378.271C346.252 378.869 346.942 379.335 347.705 379.637C348.469 379.939 349.287 380.071 350.105 380.022Z" fill="black"/>
<path d="M355.53 409.71C354.488 408.594 353.055 407.942 351.542 407.897C350.029 407.851 348.56 408.416 347.456 409.467V409.467C346.358 410.525 345.716 411.982 345.672 413.519C345.627 415.056 346.183 416.549 347.218 417.671L354.551 425.575L362.863 417.614L355.53 409.71Z" fill="#3F3D56"/>
<path d="M369.593 424.868L362.461 417.18L354.149 425.141L361.281 432.829C362.322 433.945 363.756 434.596 365.268 434.642C366.781 434.687 368.25 434.122 369.354 433.071V433.071C370.453 432.013 371.094 430.556 371.139 429.019C371.183 427.482 370.628 425.99 369.593 424.868Z" fill="#D4ADCF"/>
<path opacity="0.2" d="M371.131 428.598C370.998 429.984 370.375 431.274 369.379 432.23V432.23C368.275 433.281 366.806 433.846 365.293 433.801C363.78 433.755 362.347 433.103 361.305 431.988L354.575 424.733L354.149 425.142L361.281 432.829C362.322 433.945 363.756 434.597 365.268 434.642C366.781 434.687 368.25 434.123 369.354 433.071V433.071C369.95 432.499 370.416 431.804 370.723 431.032C371.03 430.26 371.169 429.43 371.131 428.598V428.598Z" fill="black"/>
<path d="M315.163 409.079C314.121 407.963 312.688 407.311 311.175 407.266C309.662 407.22 308.193 407.785 307.089 408.836V408.836C305.991 409.894 305.349 411.351 305.305 412.888C305.26 414.425 305.816 415.918 306.851 417.04L314.184 424.943L322.496 416.983L315.163 409.079Z" fill="#3F3D56"/>
<path d="M329.226 424.237L322.094 416.549L313.782 424.51L320.914 432.198C321.955 433.314 323.389 433.966 324.902 434.011C326.414 434.056 327.883 433.492 328.987 432.44V432.44C330.086 431.382 330.727 429.926 330.772 428.388C330.817 426.851 330.261 425.359 329.226 424.237V424.237Z" fill="#D4ADCF"/>
<path opacity="0.2" d="M330.764 427.967C330.631 429.353 330.008 430.643 329.012 431.599V431.599C327.908 432.65 326.439 433.215 324.926 433.17C323.413 433.124 321.98 432.472 320.938 431.357L314.208 424.102L313.782 424.511L320.914 432.198C321.955 433.314 323.389 433.966 324.902 434.011C326.414 434.056 327.883 433.492 328.987 432.44V432.44C329.583 431.868 330.05 431.173 330.356 430.401C330.663 429.629 330.802 428.799 330.764 427.967Z" fill="black"/>
<path d="M326.525 388.26C326.526 390.189 325.87 392.059 324.669 393.554C323.468 395.049 321.796 396.076 319.936 396.462C318.848 396.685 317.728 396.685 316.641 396.462C314.781 396.075 313.109 395.048 311.908 393.554C310.707 392.059 310.052 390.189 310.052 388.26C310.052 386.331 310.707 384.461 311.908 382.966C313.109 381.472 314.781 380.445 316.641 380.058C317.728 379.835 318.848 379.835 319.936 380.058C321.796 380.444 323.468 381.471 324.669 382.966C325.87 384.46 326.526 386.331 326.525 388.26V388.26Z" fill="#D4ADCF"/>
<path opacity="0.2" d="M319.936 380.058V396.462C318.849 396.685 317.728 396.685 316.641 396.462V380.058C317.728 379.835 318.849 379.835 319.936 380.058Z" fill="black"/>
<path d="M330.251 354.817C330.252 356.747 329.596 358.617 328.395 360.112C327.195 361.606 325.522 362.633 323.662 363.019C322.575 363.242 321.454 363.242 320.367 363.019C318.507 362.633 316.835 361.606 315.634 360.111C314.434 358.617 313.778 356.747 313.778 354.817C313.778 352.888 314.434 351.018 315.634 349.524C316.835 348.029 318.507 347.002 320.367 346.616C321.454 346.393 322.575 346.393 323.662 346.616C325.522 347.002 327.195 348.029 328.395 349.523C329.596 351.018 330.252 352.888 330.251 354.817V354.817Z" fill="#D4ADCF"/>
<path opacity="0.2" d="M323.662 346.616V363.019C322.575 363.242 321.455 363.242 320.367 363.019V346.616C321.455 346.393 322.575 346.393 323.662 346.616Z" fill="black"/>
<path d="M330.251 402.773C330.252 404.702 329.596 406.572 328.395 408.067C327.195 409.561 325.522 410.589 323.662 410.974C322.575 411.198 321.454 411.198 320.367 410.974C318.507 410.588 316.835 409.561 315.634 408.066C314.434 406.572 313.778 404.702 313.778 402.773C313.778 400.844 314.434 398.974 315.634 397.479C316.835 395.985 318.507 394.957 320.367 394.571C321.454 394.348 322.575 394.348 323.662 394.571C325.522 394.957 327.195 395.984 328.395 397.479C329.596 398.973 330.252 400.844 330.251 402.773V402.773Z" fill="#D4ADCF"/>
<path opacity="0.2" d="M323.662 394.571V410.974C322.575 411.198 321.455 411.198 320.367 410.974V394.571C321.455 394.348 322.575 394.348 323.662 394.571Z" fill="black"/>
<path d="M350.745 426.119C350.746 428.049 350.09 429.919 348.889 431.414C347.689 432.908 346.016 433.935 344.156 434.321C343.069 434.544 341.948 434.544 340.861 434.321C339.001 433.935 337.329 432.908 336.128 431.413C334.928 429.919 334.272 428.049 334.272 426.119C334.272 424.19 334.928 422.32 336.128 420.826C337.329 419.331 339.001 418.304 340.861 417.918C341.948 417.695 343.069 417.695 344.156 417.918C346.016 418.304 347.689 419.331 348.889 420.825C350.09 422.32 350.746 424.19 350.745 426.119V426.119Z" fill="#D4ADCF"/>
<path opacity="0.2" d="M344.156 417.918V434.321C343.069 434.544 341.948 434.544 340.861 434.321V417.918C341.948 417.695 343.069 417.695 344.156 417.918Z" fill="black"/>
<path d="M368.849 383.164C370.217 384.503 371.087 386.28 371.313 388.196C371.539 390.112 371.106 392.048 370.088 393.676C369.492 394.627 368.715 395.446 367.802 396.087C366.237 397.18 364.349 397.69 362.457 397.531C360.564 397.372 358.784 396.554 357.417 395.216C356.05 393.877 355.18 392.099 354.954 390.184C354.728 388.268 355.161 386.332 356.178 384.703C356.775 383.753 357.552 382.934 358.465 382.293C360.029 381.2 361.917 380.689 363.81 380.848C365.702 381.007 367.483 381.825 368.849 383.164V383.164Z" fill="#D4ADCF"/>
<path opacity="0.2" d="M358.465 382.293L370.088 393.676C369.492 394.627 368.715 395.446 367.802 396.087L356.178 384.703C356.775 383.753 357.552 382.934 358.465 382.293V382.293Z" fill="black"/>
<path d="M371.334 401.463C372.701 402.802 373.571 404.579 373.797 406.495C374.023 408.41 373.59 410.346 372.573 411.975C371.976 412.926 371.199 413.745 370.286 414.386C368.721 415.478 366.833 415.989 364.941 415.83C363.049 415.671 361.268 414.853 359.901 413.514C358.534 412.176 357.664 410.398 357.438 408.483C357.213 406.567 357.645 404.631 358.662 403.002C359.259 402.052 360.036 401.232 360.949 400.592C362.513 399.499 364.402 398.988 366.294 399.147C368.186 399.306 369.967 400.124 371.334 401.463V401.463Z" fill="#D4ADCF"/>
<path opacity="0.2" d="M360.949 400.592L372.573 411.975C371.976 412.926 371.199 413.745 370.286 414.386L358.662 403.002C359.259 402.052 360.036 401.232 360.949 400.592V400.592Z" fill="black"/>
<path d="M297.431 405.88C298.798 407.219 299.669 408.996 299.894 410.912C300.12 412.827 299.688 414.763 298.67 416.392C298.074 417.342 297.296 418.162 296.384 418.802C294.819 419.895 292.931 420.406 291.038 420.247C289.146 420.088 287.366 419.27 285.999 417.931C284.632 416.592 283.762 414.815 283.536 412.899C283.31 410.984 283.742 409.048 284.76 407.419C285.356 406.469 286.134 405.649 287.046 405.009C288.611 403.915 290.499 403.405 292.391 403.564C294.284 403.723 296.064 404.541 297.431 405.88V405.88Z" fill="#D4ADCF"/>
<path opacity="0.2" d="M287.046 405.009L298.67 416.392C298.074 417.342 297.296 418.162 296.384 418.802L284.76 407.419C285.356 406.469 286.134 405.649 287.046 405.009V405.009Z" fill="black"/>
<path opacity="0.2" d="M270.845 255.585H267.74V278.932H270.845V255.585Z" fill="black"/>
<path opacity="0.2" d="M288.855 255.585H285.75V278.932H288.855V255.585Z" fill="black"/>
<path opacity="0.2" d="M306.865 255.585H303.76V278.932H306.865V255.585Z" fill="black"/>
<path opacity="0.2" d="M324.875 255.585H321.769V278.932H324.875V255.585Z" fill="black"/>
<path opacity="0.2" d="M342.884 255.585H339.779V278.932H342.884V255.585Z" fill="black"/>
<path opacity="0.2" d="M360.894 255.585H357.789V278.932H360.894V255.585Z" fill="black"/>
<path opacity="0.2" d="M378.904 255.585H375.799V278.932H378.904V255.585Z" fill="black"/>
</svg>
