<svg width="394" height="322" viewBox="0 0 394 322" fill="none" xmlns="http://www.w3.org/2000/svg">
<path fill-rule="evenodd" clip-rule="evenodd" d="M221.502 5.90136C273.84 -2.56672 336.74 -7.19114 372.59 30.0674C408.029 66.8989 390.468 124.389 383.077 173.827C377.064 214.056 366.228 254.105 334.962 281.783C304.695 308.577 262.654 313.118 221.502 316.862C173.881 321.194 123.595 330.226 84.0519 304.61C38.0083 274.782 -6.13782 226.426 0.704183 173.827C7.35244 122.718 72.0503 104.007 114.329 71.8525C148.877 45.5775 177.9 12.9559 221.502 5.90136Z" fill="#81E6D9"/>
<path d="M311.016 74.4678L284.989 74.738C283.766 68.3223 279.656 51.4885 283.357 46.8969C283.526 45.1688 284.314 43.5765 285.557 42.4517C286.8 41.3268 288.402 40.7559 290.031 40.858V40.858C294.065 34.1312 300.784 35.1412 305.325 39.3423C309.896 41.0223 311.619 44.0069 311.016 48.0571C314.401 51.2133 315.026 55.0532 313.506 59.4242L311.016 74.4678Z" fill="#2F2E41"/>
<path d="M308.511 91.5476L289.733 88.778L285.977 82.9308C291.151 79.2753 292.982 74.1694 290.6 67.236L303.6 66.9282C302.991 73.1026 304.907 77.8832 310.244 80.7767L308.511 91.5476Z" fill="#FFB9B9"/>
<path d="M285.294 271.972L284.575 282.428C284.543 282.902 284.606 283.377 284.76 283.822C284.914 284.268 285.156 284.673 285.469 285.01C285.782 285.348 286.159 285.61 286.575 285.78C286.991 285.95 287.436 286.023 287.881 285.994L292.923 285.669C293.156 285.653 293.384 285.584 293.59 285.464C293.795 285.345 293.973 285.179 294.112 284.978C294.25 284.777 294.345 284.546 294.39 284.301C294.435 284.056 294.429 283.804 294.372 283.562L291.574 271.637L285.294 271.972Z" fill="#E6E6E6"/>
<path d="M301.616 271.637L298.818 283.562C298.761 283.804 298.755 284.056 298.8 284.301C298.845 284.546 298.94 284.777 299.078 284.978C299.217 285.179 299.395 285.345 299.601 285.464C299.806 285.584 300.034 285.653 300.267 285.669L305.309 285.994C305.754 286.023 306.199 285.95 306.615 285.78C307.031 285.61 307.408 285.348 307.721 285.01C308.034 284.673 308.276 284.268 308.43 283.822C308.584 283.377 308.647 282.902 308.615 282.428L307.897 271.972L301.616 271.637Z" fill="#E6E6E6"/>
<path d="M308.222 273.423L301.418 272.696L294.644 195.565L292.084 272.448L285.4 272.193L274.133 165.713H317.178L308.222 273.423Z" fill="#D7B3D2"/>
<path d="M297.822 72.1597C305.002 72.1597 310.822 65.9596 310.822 58.3113C310.822 50.663 305.002 44.4629 297.822 44.4629C290.642 44.4629 284.822 50.663 284.822 58.3113C284.822 65.9596 290.642 72.1597 297.822 72.1597Z" fill="#FFB9B9"/>
<path d="M323.533 168.176L270.955 168.791C278.758 137.148 283.426 107.754 275.289 87.547L288.289 80.7766C294.557 87.7413 301.538 87.0233 309.089 80.1611L321.511 83.5463C319.383 110.045 320.337 138.426 323.533 168.176Z" fill="#D7B3D2"/>
<path d="M256.511 135.555L289.155 149.403L296.454 151.69C296.78 151.792 297.123 151.823 297.461 151.781C297.799 151.739 298.125 151.624 298.42 151.444C298.716 151.264 298.974 151.022 299.179 150.733C299.385 150.444 299.533 150.114 299.616 149.762C299.76 149.145 299.695 148.494 299.432 147.924C299.169 147.353 298.725 146.9 298.178 146.646L290.6 144.172L267.777 130.015L272.544 116.629L262.577 110.935L256.511 135.555Z" fill="#FFB9B9"/>
<path d="M256.799 110.32C263.01 112.901 267.95 117.306 271.822 123.245L283.955 104.473L275.288 87.5469L256.799 110.32Z" fill="#D7B3D2"/>
<path d="M312.474 56.067C307.197 54.6188 302.01 54.4199 296.967 56.2568C293.755 57.9142 289.897 57.7615 285.607 56.3959V42.5793L308.768 43.2373L312.474 56.067Z" fill="#2F2E41"/>
<path d="M289.047 119.42C288.026 119.421 287.047 119.853 286.326 120.622C285.604 121.391 285.198 122.434 285.197 123.521L286.716 157.411C286.718 158.498 287.124 159.541 287.845 160.31C288.567 161.079 289.546 161.511 290.567 161.513H307.943C308.963 161.511 309.942 161.079 310.664 160.31C311.386 159.541 311.792 158.498 311.793 157.411L313.313 123.521C313.312 122.434 312.906 121.391 312.184 120.622C311.462 119.853 310.483 119.421 309.462 119.42H289.047Z" fill="#3F3D56"/>
<path d="M338.347 132.995L309.893 145.064L307.746 145.975C307.678 146.003 307.61 146.027 307.537 146.051L300.345 148.306C299.426 148.593 298.153 147.274 297.408 146.363C297.039 145.924 296.83 145.359 296.819 144.77C296.808 144.181 296.995 143.608 297.347 143.154C297.447 143.031 297.556 142.919 297.674 142.818C297.951 142.588 298.278 142.435 298.624 142.372L305.809 140.867C306.066 140.813 306.314 140.714 306.542 140.575L309.893 138.495L327.291 127.705C327.775 127.405 328.143 126.932 328.33 126.37C328.517 125.808 328.511 125.194 328.313 124.637L324.992 115.307C324.789 114.737 324.787 114.106 324.988 113.534C325.188 112.962 325.578 112.488 326.083 112.199L331.584 109.058C331.899 108.878 332.247 108.777 332.604 108.761C332.96 108.746 333.315 108.817 333.642 108.969C333.969 109.121 334.26 109.35 334.492 109.639C334.724 109.928 334.891 110.269 334.981 110.637L339.757 130.016C339.904 130.61 339.842 131.241 339.582 131.79C339.322 132.338 338.883 132.767 338.347 132.995V132.995Z" fill="#FFB9B9"/>
<path d="M340 106.935C333.789 109.516 328.849 113.921 324.978 119.86L312.844 101.088L321.511 83.5463L340 106.935Z" fill="#D7B3D2"/>
<path d="M306.474 70.6372C300.786 73.1572 294.823 73.0549 288.616 70.6372C290.422 67.3531 287.722 64.7811 286.336 61.4659L309.513 60.7322C307.741 63.6122 305.126 67.0148 306.474 70.6372Z" fill="white"/>
<path d="M309.268 61.2801L308.999 60.9939L309.379 60.5892L311.649 57.7673L311.937 58.0304L309.658 60.8636L309.268 61.2801Z" fill="white"/>
<path d="M284.748 59.5648L284.505 59.8759L286.785 61.8996L287.028 61.5885L284.748 59.5648Z" fill="white"/>
<path d="M309.923 63.6596L305.932 70.3372L306.253 70.5545L310.243 63.877L309.923 63.6596Z" fill="white"/>
<path d="M285.167 63.6591L284.846 63.8765L288.836 70.5547L289.156 70.3373L285.167 63.6591Z" fill="white"/>
<path d="M310.653 137.922V145.255L308.257 146.272C308.18 146.303 308.104 146.33 308.024 146.357L299.995 148.874C298.969 149.195 297.548 147.722 296.717 146.705C296.305 146.215 296.072 145.585 296.06 144.927C296.047 144.27 296.256 143.63 296.649 143.123C296.76 142.986 296.882 142.861 297.014 142.748C297.323 142.491 297.687 142.32 298.074 142.251L306.094 140.57C306.382 140.51 306.658 140.4 306.912 140.245L310.653 137.922Z" fill="white"/>
<path d="M314.126 111.768H312.753C312.753 91.0817 308.754 76.6655 304.858 76.6655L304.515 75.2029C308.009 75.2029 310.237 81.2028 311.49 86.2362C313.19 93.0599 314.126 102.127 314.126 111.768Z" fill="#3F3D56"/>
<path d="M282.546 106.649H281.173C281.173 87.7036 285.199 75.9343 291.128 75.9343L290.784 77.3969C286.684 77.3969 282.546 86.442 282.546 106.649Z" fill="#3F3D56"/>
<path d="M313.439 115.79C315.335 115.79 316.872 114.153 316.872 112.134C316.872 110.115 315.335 108.477 313.439 108.477C311.543 108.477 310.007 110.115 310.007 112.134C310.007 114.153 311.543 115.79 313.439 115.79Z" fill="#3F3D56"/>
<path d="M277.054 115.425H275.681C275.681 110.183 278.453 105.918 281.86 105.918V107.38C279.21 107.38 277.054 110.989 277.054 115.425Z" fill="#3F3D56"/>
<path d="M288.038 115.425H286.665C286.665 110.989 284.51 107.38 281.86 107.38V105.918C285.267 105.918 288.038 110.183 288.038 115.425Z" fill="#3F3D56"/>
<path d="M287.352 117.253C288.11 117.253 288.725 116.598 288.725 115.79C288.725 114.983 288.11 114.328 287.352 114.328C286.594 114.328 285.979 114.983 285.979 115.79C285.979 116.598 286.594 117.253 287.352 117.253Z" fill="#3F3D56"/>
<path d="M276.368 117.253C277.126 117.253 277.741 116.598 277.741 115.79C277.741 114.983 277.126 114.328 276.368 114.328C275.609 114.328 274.995 114.983 274.995 115.79C274.995 116.598 275.609 117.253 276.368 117.253Z" fill="#3F3D56"/>
<path d="M110.904 66.6379L86.7901 70.9878C86.1944 71.0961 85.5822 70.9651 85.0719 70.6203C84.5616 70.2754 84.1896 69.7411 84.0278 69.1209C82.2856 62.4227 78.6432 53.6846 82.1796 49.2981C82.3598 47.4527 83.2011 45.7524 84.5285 44.5512C85.8559 43.35 87.567 42.7404 89.3057 42.8494C93.6134 35.6663 100.789 36.7448 105.638 41.231C110.519 43.0249 112.359 46.212 111.715 50.537C113.824 52.503 114.929 54.7174 115.162 57.148C115.273 58.5005 115.111 59.8626 114.688 61.1434C114.265 62.4242 113.591 63.5942 112.71 64.5753L110.904 66.6379Z" fill="#2F2E41"/>
<path d="M107.155 86.8607L88.4612 85.6894C90.2932 81.2101 91.025 76.8969 90.2939 72.8042H104.222C104.191 75.9465 105.659 81.3822 107.155 86.8607Z" fill="#9F616A"/>
<path d="M84.6529 270.867L83.8862 282.033C83.8514 282.538 83.9186 283.046 84.0831 283.521C84.2476 283.997 84.5056 284.429 84.8399 284.79C85.1742 285.15 85.5769 285.431 86.0212 285.612C86.4655 285.793 86.941 285.871 87.4159 285.84L92.7998 285.493C93.0493 285.477 93.2923 285.402 93.5117 285.275C93.7311 285.147 93.9215 284.97 94.0692 284.755C94.217 284.54 94.3186 284.293 94.3667 284.032C94.4148 283.771 94.4084 283.502 94.3478 283.243L91.3592 270.51L84.6529 270.867Z" fill="#E6E6E6"/>
<path d="M102.083 270.51L99.0945 283.243C99.0339 283.502 99.0274 283.771 99.0756 284.032C99.1237 284.293 99.2253 284.54 99.373 284.755C99.5208 284.97 99.7111 285.147 99.9305 285.275C100.15 285.402 100.393 285.477 100.642 285.493L106.026 285.84C106.501 285.871 106.977 285.793 107.421 285.612C107.865 285.431 108.268 285.15 108.602 284.79C108.937 284.429 109.195 283.997 109.359 283.521C109.524 283.046 109.591 282.538 109.556 282.033L108.789 270.867L102.083 270.51Z" fill="#E6E6E6"/>
<path d="M109.137 272.417L101.871 271.64L94.638 189.276L91.9043 271.375L84.7662 271.102L72.7352 157.4H118.7L109.137 272.417Z" fill="#D7B3D2"/>
<path d="M97.6256 77.5441C105.292 77.5441 111.508 70.9233 111.508 62.7562C111.508 54.589 105.292 47.9683 97.6256 47.9683C89.9588 47.9683 83.7436 54.589 83.7436 62.7562C83.7436 70.9233 89.9588 77.5441 97.6256 77.5441Z" fill="#9F616A"/>
<path d="M113.271 55.692C107.637 54.6467 102.098 54.5032 96.7126 55.829C93.2824 57.0252 89.163 56.915 84.5818 55.9294V45.957L109.314 46.4319L113.271 55.692Z" fill="#2F2E41"/>
<path d="M106.864 74.6217C100.791 77.3126 94.4234 77.2034 87.7952 74.6217C89.7239 71.1148 86.8409 68.3683 85.3609 64.8282L110.11 64.0447C108.217 67.12 105.425 70.7535 106.864 74.6217Z" fill="white"/>
<path d="M83.6568 62.8086L83.4135 63.1198L85.8477 65.2806L86.0911 64.9695L83.6568 62.8086Z" fill="white"/>
<path d="M110.558 67.1778L106.297 74.3085L106.618 74.5259L110.879 67.3952L110.558 67.1778Z" fill="white"/>
<path d="M84.1006 67.1774L83.78 67.3948L88.0401 74.5261L88.3607 74.3088L84.1006 67.1774Z" fill="white"/>
<path d="M71.2338 130.202L60.6041 123.173L69.6694 94.8906C70.6804 91.9722 72.617 89.5218 75.1443 87.9632L78.1981 86.0798L78.4636 114.612L71.2338 130.202Z" fill="#D7B3D2"/>
<path d="M117.18 143.938L115.607 129.589C115.523 122.015 116.733 114.693 119.617 107.946L121.083 86.8608L104.956 79.8325C104.906 80.1826 104.864 80.5325 104.817 80.8825L97.2582 84.9085L89.8865 83.1238L89.9273 80.6135L75.2657 87.6417C80.1143 111.654 77.4698 136.59 69.132 166.044L88.4473 171.67L88.6079 161.79L105.822 160.48C105.999 163.686 106.142 166.834 106.225 169.913C115.938 173.722 116.272 173.659 125.122 168.205C121.597 160.311 118.807 152.097 117.18 143.938Z" fill="#D7B3D2"/>
<path d="M141.976 126.687L132.08 123.174L116.249 103.542L121.083 86.861L143.076 119.66L141.976 126.687Z" fill="#D7B3D2"/>
<path d="M110.96 141.886C111.122 142.643 111.559 143.3 112.176 143.715C112.792 144.129 113.538 144.266 114.249 144.095L122.65 142.069L121.435 136.356L113.034 138.383C112.323 138.554 111.705 139.02 111.316 139.677C110.927 140.334 110.799 141.128 110.96 141.886V141.886Z" fill="#E6E6E6"/>
<path d="M118.517 135.278L123.282 144.649C131.297 142.268 138.243 134.761 144.908 125.907L143.076 119.659L131.713 122.783L118.517 135.278Z" fill="#D7B3D2"/>
<path d="M56.3888 105.883L65.5364 107.623L86.4453 139.293L75.3375 136.509L56.3888 105.883Z" fill="#E6E6E6"/>
<path d="M54.7663 105.495C54.6269 105.497 54.4907 105.54 54.3718 105.617C54.2529 105.695 54.1557 105.805 54.0905 105.936C54.0252 106.067 53.9943 106.215 54.0009 106.363C54.0075 106.511 54.0513 106.655 54.1279 106.779L73.6722 138.368C73.7812 138.544 73.9497 138.67 74.1429 138.718L83.2362 140.997C83.3895 141.036 83.5502 141.023 83.6969 140.962C83.8436 140.901 83.9694 140.794 84.0576 140.655C84.1458 140.516 84.1923 140.352 84.1909 140.184C84.1894 140.016 84.1401 139.853 84.0495 139.716L62.5911 107.214C62.5329 107.125 62.4589 107.05 62.3733 106.992C62.2877 106.933 62.1922 106.894 62.0923 106.875L54.9129 105.509C54.8645 105.5 54.8155 105.495 54.7663 105.495Z" fill="#3F3D56"/>
<path d="M66.9581 128.081L67.5013 133.909L76.0727 133.003C76.7983 132.926 77.4655 132.545 77.9276 131.945C78.3897 131.344 78.6089 130.572 78.5369 129.799C78.4649 129.027 78.1076 128.316 77.5436 127.824C76.9797 127.331 76.2553 127.098 75.5297 127.174L66.9581 128.081Z" fill="#E6E6E6"/>
<path d="M59.5047 127.406C59.5171 129.393 60.2664 131.294 61.5893 132.696C62.9121 134.097 64.7012 134.885 66.5669 134.887H67.9763L69.0024 125.778L60.5066 122.52L59.5047 127.406Z" fill="#D7B3D2"/>
<path d="M109.433 65.0523L109.164 64.7662L109.57 64.3339L111.994 61.3198L112.283 61.5829L109.848 64.6083L109.433 65.0523Z" fill="white"/>
<path d="M157.914 284.959H237.703V181.864C237.703 176.405 232.656 171.964 226.451 171.964H169.166C162.962 171.964 157.914 176.405 157.914 181.864V284.959Z" fill="#E6E6E6"/>
<path d="M163.994 280.696H231.624V193.311C231.624 188.684 227.346 184.919 222.087 184.919H173.531C168.272 184.919 163.994 188.684 163.994 193.311V280.696Z" fill="white"/>
<path d="M157.312 163.941C155.34 163.941 153.735 165.353 153.735 167.088V176.172C153.735 177.907 155.34 179.319 157.312 179.319H238.306C240.278 179.319 241.883 177.907 241.883 176.172V167.088C241.883 165.353 240.278 163.941 238.306 163.941H157.312Z" fill="#3F3D56"/>
<path d="M173.941 269.49C173.015 269.493 172.128 269.886 171.473 270.584C170.818 271.281 170.449 272.226 170.447 273.213V273.213C170.449 274.199 170.818 275.144 171.473 275.842C172.128 276.539 173.015 276.932 173.941 276.935H180.481V269.49H173.941Z" fill="#3F3D56"/>
<path d="M186.484 269.49H180.123V276.935H186.484C187.41 276.932 188.297 276.539 188.952 275.842C189.607 275.144 189.976 274.199 189.979 273.213V273.213C189.976 272.226 189.607 271.281 188.952 270.584C188.297 269.886 187.41 269.493 186.484 269.49V269.49Z" fill="#D7B3D2"/>
<path opacity="0.2" d="M188.764 270.402C189.315 271.075 189.619 271.938 189.62 272.831V272.831C189.617 273.817 189.248 274.762 188.594 275.46C187.939 276.157 187.052 276.55 186.126 276.553H180.123V276.935H186.484C187.41 276.932 188.297 276.539 188.952 275.842C189.607 275.144 189.976 274.199 189.979 273.213C189.978 272.679 189.869 272.151 189.659 271.666C189.45 271.181 189.145 270.75 188.764 270.402V270.402Z" fill="black"/>
<path d="M203.455 213.423C202.818 212.708 201.941 212.29 201.016 212.26C200.09 212.231 199.192 212.594 198.516 213.268V213.268C197.844 213.947 197.452 214.881 197.424 215.867C197.397 216.853 197.737 217.81 198.37 218.53L202.856 223.6L207.942 218.493L203.455 213.423Z" fill="#3F3D56"/>
<path d="M212.059 223.146L207.696 218.215L202.611 223.322L206.974 228.253C207.611 228.969 208.488 229.387 209.414 229.416C210.339 229.445 211.238 229.083 211.913 228.408V228.408C212.585 227.73 212.978 226.795 213.005 225.809C213.032 224.823 212.692 223.866 212.059 223.146V223.146Z" fill="#D7B3D2"/>
<path opacity="0.2" d="M213.001 225.539C212.919 226.428 212.538 227.255 211.928 227.869V227.869C211.253 228.543 210.354 228.905 209.429 228.876C208.503 228.847 207.626 228.429 206.989 227.713L202.871 223.06L202.611 223.322L206.974 228.253C207.611 228.969 208.488 229.387 209.414 229.416C210.339 229.445 211.238 229.083 211.913 228.408C212.278 228.041 212.563 227.595 212.751 227.1C212.938 226.605 213.024 226.073 213.001 225.539V225.539Z" fill="black"/>
<path d="M184.838 225.161C184.201 224.445 183.324 224.027 182.398 223.998C181.473 223.969 180.574 224.331 179.899 225.006V225.006C179.227 225.684 178.834 226.619 178.807 227.604C178.78 228.59 179.12 229.548 179.753 230.267L184.239 235.337L189.324 230.231L184.838 225.161Z" fill="#3F3D56"/>
<path d="M193.442 234.884L189.078 229.953L183.993 235.059L188.357 239.99C188.994 240.706 189.871 241.124 190.796 241.153C191.722 241.182 192.62 240.82 193.296 240.146V240.146C193.968 239.467 194.36 238.533 194.388 237.547C194.415 236.561 194.075 235.604 193.442 234.884V234.884Z" fill="#D7B3D2"/>
<path opacity="0.2" d="M194.383 237.277C194.301 238.165 193.921 238.993 193.311 239.606V239.606C192.635 240.28 191.737 240.643 190.811 240.614C189.886 240.584 189.009 240.166 188.372 239.451L184.254 234.797L183.993 235.059L188.357 239.99C188.994 240.706 189.871 241.124 190.796 241.153C191.722 241.182 192.62 240.82 193.296 240.146V240.146C193.66 239.779 193.946 239.333 194.133 238.837C194.321 238.342 194.406 237.81 194.383 237.277Z" fill="black"/>
<path d="M203.455 236.089C202.818 235.373 201.941 234.955 201.016 234.926C200.09 234.897 199.192 235.259 198.516 235.934V235.934C197.844 236.612 197.452 237.546 197.424 238.532C197.397 239.518 197.737 240.476 198.37 241.195L202.856 246.265L207.942 241.159L203.455 236.089Z" fill="#3F3D56"/>
<path d="M212.059 245.812L207.696 240.881L202.611 245.987L206.974 250.918C207.611 251.634 208.488 252.052 209.414 252.081C210.339 252.11 211.238 251.748 211.913 251.074V251.074C212.585 250.395 212.978 249.461 213.005 248.475C213.032 247.489 212.692 246.532 212.059 245.812V245.812Z" fill="#D7B3D2"/>
<path opacity="0.2" d="M213.001 248.205C212.919 249.094 212.538 249.921 211.928 250.534C211.253 251.209 210.354 251.571 209.429 251.542C208.503 251.513 207.626 251.094 206.989 250.379L202.871 245.726L202.611 245.987L206.974 250.918C207.611 251.634 208.488 252.052 209.414 252.081C210.339 252.11 211.238 251.748 211.913 251.074V251.074C212.278 250.707 212.563 250.261 212.751 249.766C212.938 249.27 213.024 248.738 213.001 248.205V248.205Z" fill="black"/>
<path d="M214.813 259.348C215.477 258.661 215.859 257.721 215.875 256.735C215.891 255.749 215.54 254.796 214.899 254.085V254.085C214.254 253.377 213.372 252.971 212.446 252.954C211.52 252.936 210.626 253.31 209.958 253.993L205.253 258.834L210.109 264.188L214.813 259.348Z" fill="#3F3D56"/>
<path d="M205.791 268.631L210.366 263.923L205.511 258.569L200.936 263.276C200.272 263.964 199.89 264.903 199.874 265.889C199.858 266.875 200.209 267.828 200.85 268.54V268.54C201.495 269.247 202.377 269.654 203.303 269.671C204.228 269.688 205.123 269.314 205.791 268.631V268.631Z" fill="#D7B3D2"/>
<path opacity="0.2" d="M203.556 269.663C202.721 269.586 201.94 269.191 201.357 268.549V268.549C200.715 267.838 200.364 266.885 200.38 265.899C200.397 264.912 200.778 263.973 201.442 263.286L205.76 258.843L205.511 258.569L200.936 263.276C200.272 263.964 199.89 264.903 199.874 265.889C199.858 266.875 200.209 267.828 200.85 268.54V268.54C201.199 268.923 201.621 269.222 202.088 269.416C202.555 269.61 203.056 269.694 203.556 269.663Z" fill="black"/>
<path d="M189.736 247.611C190.401 246.923 190.782 245.984 190.798 244.998C190.815 244.012 190.464 243.059 189.822 242.347C189.177 241.64 188.295 241.233 187.37 241.216C186.444 241.199 185.549 241.573 184.881 242.256L180.177 247.096L185.032 252.451L189.736 247.611Z" fill="#3F3D56"/>
<path d="M180.714 256.893L185.29 252.186L180.435 246.831L175.859 251.539C175.195 252.226 174.813 253.165 174.797 254.152C174.781 255.138 175.132 256.091 175.773 256.802V256.802C176.419 257.51 177.3 257.916 178.226 257.933C179.152 257.95 180.046 257.577 180.714 256.893V256.893Z" fill="#D7B3D2"/>
<path opacity="0.2" d="M178.48 257.925C177.644 257.849 176.863 257.453 176.28 256.811C175.639 256.1 175.288 255.147 175.304 254.161C175.32 253.175 175.702 252.235 176.366 251.548L180.684 247.106L180.435 246.831L175.859 251.539C175.195 252.226 174.813 253.165 174.797 254.152C174.781 255.138 175.132 256.091 175.773 256.802V256.802C176.122 257.186 176.544 257.484 177.012 257.678C177.479 257.872 177.979 257.956 178.48 257.925V257.925Z" fill="black"/>
<path d="M225.451 233.445C226.116 232.757 226.497 231.818 226.513 230.832C226.53 229.846 226.179 228.893 225.537 228.181V228.181C224.892 227.474 224.01 227.067 223.085 227.05C222.159 227.033 221.264 227.407 220.596 228.09L215.892 232.93L220.747 238.285L225.451 233.445Z" fill="#3F3D56"/>
<path d="M216.429 242.727L221.005 238.02L216.15 232.665L211.574 237.373C210.91 238.06 210.528 238.999 210.512 239.986C210.496 240.972 210.847 241.925 211.488 242.636V242.636C212.134 243.343 213.015 243.75 213.941 243.767C214.867 243.784 215.761 243.411 216.429 242.727Z" fill="#D7B3D2"/>
<path opacity="0.2" d="M214.195 243.759C213.359 243.683 212.578 243.287 211.995 242.645V242.645C211.354 241.934 211.003 240.981 211.019 239.995C211.035 239.009 211.417 238.069 212.081 237.382L216.399 232.94L216.15 232.665L211.574 237.373C210.91 238.06 210.528 238.999 210.512 239.986C210.496 240.972 210.847 241.925 211.488 242.636V242.636C211.837 243.019 212.26 243.318 212.727 243.512C213.194 243.706 213.694 243.79 214.195 243.759Z" fill="black"/>
<path d="M217.513 262.802C216.876 262.086 215.999 261.668 215.074 261.639C214.148 261.61 213.25 261.972 212.574 262.646V262.646C211.902 263.325 211.51 264.259 211.482 265.245C211.455 266.231 211.795 267.189 212.428 267.908L216.914 272.978L222 267.872L217.513 262.802Z" fill="#3F3D56"/>
<path d="M226.117 272.525L221.754 267.594L216.669 272.7L221.032 277.631C221.669 278.347 222.546 278.765 223.472 278.794C224.397 278.823 225.296 278.461 225.972 277.787V277.787C226.643 277.108 227.036 276.174 227.063 275.188C227.091 274.202 226.75 273.244 226.117 272.525Z" fill="#D7B3D2"/>
<path opacity="0.2" d="M227.059 274.918C226.977 275.806 226.596 276.634 225.986 277.247V277.247C225.311 277.921 224.412 278.284 223.487 278.255C222.561 278.225 221.684 277.807 221.047 277.092L216.929 272.438L216.669 272.7L221.032 277.631C221.669 278.347 222.546 278.765 223.472 278.794C224.397 278.823 225.296 278.461 225.972 277.787V277.787C226.336 277.42 226.621 276.974 226.809 276.478C226.996 275.983 227.082 275.451 227.059 274.918V274.918Z" fill="black"/>
<path d="M192.817 262.397C192.18 261.681 191.303 261.263 190.377 261.234C189.452 261.205 188.553 261.567 187.877 262.242V262.242C187.206 262.92 186.813 263.855 186.786 264.84C186.758 265.826 187.098 266.784 187.732 267.503L192.218 272.573L197.303 267.467L192.817 262.397Z" fill="#3F3D56"/>
<path d="M201.421 272.12L197.057 267.189L191.972 272.296L196.336 277.227C196.973 277.942 197.85 278.36 198.775 278.389C199.701 278.419 200.599 278.056 201.275 277.382V277.382C201.947 276.703 202.339 275.769 202.367 274.783C202.394 273.797 202.054 272.84 201.421 272.12V272.12Z" fill="#D7B3D2"/>
<path opacity="0.2" d="M202.362 274.513C202.28 275.402 201.899 276.229 201.29 276.842V276.842C200.614 277.517 199.716 277.879 198.79 277.85C197.865 277.821 196.988 277.403 196.351 276.687L192.233 272.034L191.972 272.296L196.336 277.227C196.973 277.942 197.85 278.36 198.775 278.389C199.701 278.419 200.599 278.056 201.275 277.382V277.382C201.639 277.015 201.925 276.569 202.112 276.074C202.3 275.579 202.385 275.046 202.362 274.513Z" fill="black"/>
<path d="M199.769 249.043C199.769 250.281 199.368 251.48 198.633 252.439C197.898 253.398 196.875 254.056 195.737 254.304C195.072 254.447 194.387 254.447 193.721 254.304C192.583 254.056 191.56 253.397 190.826 252.439C190.091 251.48 189.69 250.281 189.69 249.043C189.69 247.806 190.091 246.606 190.826 245.648C191.56 244.689 192.583 244.03 193.721 243.782C194.387 243.639 195.072 243.639 195.737 243.782C196.875 244.03 197.898 244.689 198.633 245.647C199.368 246.606 199.769 247.806 199.769 249.043V249.043Z" fill="#D7B3D2"/>
<path opacity="0.2" d="M195.737 243.782V254.304C195.072 254.447 194.387 254.447 193.721 254.304V243.782C194.387 243.639 195.072 243.639 195.737 243.782Z" fill="black"/>
<path d="M202.048 227.592C202.048 228.83 201.647 230.029 200.913 230.988C200.178 231.946 199.155 232.605 198.017 232.853C197.352 232.996 196.666 232.996 196.001 232.853C194.863 232.605 193.84 231.946 193.105 230.988C192.371 230.029 191.97 228.829 191.97 227.592C191.97 226.355 192.371 225.155 193.105 224.196C193.84 223.238 194.863 222.579 196.001 222.331C196.666 222.188 197.352 222.188 198.017 222.331C199.155 222.579 200.178 223.238 200.913 224.196C201.647 225.155 202.048 226.354 202.048 227.592V227.592Z" fill="#D7B3D2"/>
<path opacity="0.2" d="M198.017 222.331V232.853C197.352 232.996 196.666 232.996 196.001 232.853V222.331C196.666 222.188 197.352 222.188 198.017 222.331Z" fill="black"/>
<path d="M202.048 258.352C202.048 259.59 201.647 260.789 200.913 261.748C200.178 262.707 199.155 263.366 198.017 263.613C197.352 263.756 196.666 263.756 196.001 263.613C194.863 263.365 193.84 262.706 193.105 261.748C192.371 260.789 191.97 259.59 191.97 258.352C191.97 257.115 192.371 255.915 193.105 254.957C193.84 253.998 194.863 253.339 196.001 253.091C196.666 252.948 197.352 252.948 198.017 253.091C199.155 253.339 200.178 253.998 200.913 254.956C201.647 255.915 202.048 257.115 202.048 258.352V258.352Z" fill="#D7B3D2"/>
<path opacity="0.2" d="M198.017 253.091V263.613C197.352 263.756 196.666 263.756 196.001 263.613V253.091C196.666 252.948 197.352 252.948 198.017 253.091Z" fill="black"/>
<path d="M214.586 273.328C214.587 274.565 214.186 275.765 213.451 276.723C212.716 277.682 211.693 278.341 210.555 278.588C209.89 278.732 209.205 278.732 208.539 278.588C207.401 278.341 206.378 277.682 205.644 276.723C204.909 275.765 204.508 274.565 204.508 273.328C204.508 272.09 204.909 270.891 205.644 269.932C206.378 268.973 207.401 268.315 208.539 268.067C209.205 267.924 209.89 267.924 210.555 268.067C211.693 268.314 212.716 268.973 213.451 269.932C214.186 270.891 214.587 272.09 214.586 273.328V273.328Z" fill="#D7B3D2"/>
<path opacity="0.2" d="M210.555 268.067V278.588C209.89 278.732 209.205 278.732 208.539 278.588V268.067C209.205 267.924 209.89 267.924 210.555 268.067Z" fill="black"/>
<path d="M225.663 245.775C226.499 246.633 227.032 247.773 227.17 249.002C227.308 250.231 227.043 251.473 226.421 252.518C226.056 253.127 225.58 253.653 225.022 254.064C224.064 254.765 222.909 255.092 221.752 254.99C220.594 254.888 219.505 254.364 218.668 253.505C217.832 252.646 217.3 251.506 217.161 250.277C217.023 249.048 217.288 247.807 217.91 246.762C218.275 246.152 218.751 245.627 219.309 245.216C220.266 244.515 221.422 244.187 222.579 244.289C223.737 244.391 224.826 244.916 225.663 245.775V245.775Z" fill="#D7B3D2"/>
<path opacity="0.2" d="M219.309 245.216L226.421 252.518C226.056 253.127 225.58 253.653 225.022 254.064L217.91 246.762C218.275 246.152 218.751 245.627 219.309 245.216V245.216Z" fill="black"/>
<path d="M227.182 257.512C228.019 258.371 228.551 259.511 228.689 260.74C228.828 261.968 228.563 263.21 227.94 264.255C227.575 264.865 227.1 265.39 226.541 265.801C225.584 266.502 224.429 266.829 223.271 266.728C222.114 266.626 221.024 266.101 220.188 265.242C219.352 264.384 218.819 263.243 218.681 262.015C218.543 260.786 218.808 259.544 219.43 258.499C219.795 257.89 220.271 257.364 220.829 256.953C221.786 256.252 222.941 255.925 224.099 256.027C225.257 256.128 226.346 256.653 227.182 257.512V257.512Z" fill="#D7B3D2"/>
<path opacity="0.2" d="M220.829 256.953L227.94 264.255C227.576 264.865 227.1 265.39 226.542 265.801L219.43 258.499C219.795 257.89 220.271 257.364 220.829 256.953V256.953Z" fill="black"/>
<path d="M181.969 260.345C182.805 261.204 183.338 262.344 183.476 263.573C183.614 264.802 183.349 266.043 182.727 267.088C182.362 267.698 181.886 268.223 181.328 268.634C180.371 269.335 179.215 269.662 178.058 269.561C176.9 269.459 175.811 268.934 174.974 268.075C174.138 267.217 173.606 266.077 173.468 264.848C173.329 263.619 173.594 262.377 174.216 261.333C174.581 260.723 175.057 260.197 175.615 259.786C176.572 259.085 177.728 258.758 178.885 258.86C180.043 258.961 181.132 259.486 181.969 260.345V260.345Z" fill="#D7B3D2"/>
<path opacity="0.2" d="M175.615 259.786L182.727 267.088C182.362 267.698 181.886 268.223 181.328 268.634L174.216 261.333C174.581 260.723 175.057 260.197 175.615 259.786V259.786Z" fill="black"/>
<path opacity="0.2" d="M165.703 163.941H163.804V178.917H165.703V163.941Z" fill="black"/>
<path opacity="0.2" d="M176.722 163.941H174.822V178.917H176.722V163.941Z" fill="black"/>
<path opacity="0.2" d="M187.74 163.941H185.84V178.917H187.74V163.941Z" fill="black"/>
<path opacity="0.2" d="M198.759 163.941H196.859V178.917H198.759V163.941Z" fill="black"/>
<path opacity="0.2" d="M209.777 163.941H207.877V178.917H209.777V163.941Z" fill="black"/>
<path opacity="0.2" d="M220.796 163.941H218.896V178.917H220.796V163.941Z" fill="black"/>
<path opacity="0.2" d="M231.814 163.941H229.914V178.917H231.814V163.941Z" fill="black"/>
</svg>
